<?xml version="1.0" encoding="utf-8"?>
<!-- Generator: Adobe Illustrator 19.0.0, SVG Export Plug-In . SVG Version: 6.00 Build 0)  -->
<svg version="1.1" id="Layer_1" xmlns="http://www.w3.org/2000/svg" xmlns:xlink="http://www.w3.org/1999/xlink" x="0px" y="0px"
	 viewBox="-15 21 19 30" style="enable-background:new -15 21 19 30;" xml:space="preserve">
<style type="text/css">
	.st1 {
	  fill: #FFFFFF;
	  animation: translateUpDown 2s ease-out infinite;
	}

	.st0 {
	    fill: #FFFFFF;
	    stroke: #FFFFFF;
	    stroke-width: 0.1966;
	    stroke-miterlimit: 10;
	}

	@keyframes translateUpDown {
	    0% {
	        transform: translateY(0px)
	    }
	    25% {
	        transform: translateY(1px);
	    }
	    50% {
	        transform: translateY(0px);
	    }
	    75% {
	        transform: translateY(-0.6px);
	    }
	    100% {
	        transform: translateY(0)
	    }
	}
</style>
<path id="XMLID_1_" class="st0" d="M-5.5,22.3c7.9,0.4,8,3.5,8.3,12.6v2.2c-0.3,9.1-0.4,12.2-8.3,12.6c-7.9-0.4-8-3.5-8.3-12.6v-2.2
	C-13.5,25.9-13.4,22.7-5.5,22.3 M-5.5,21.3c-9.2,0.5-9,4.9-9.3,14.7c0.3,9.8,0.1,14.3,9.3,14.7c9.2-0.5,9-4.9,9.3-14.7
	C3.5,26.2,3.7,21.7-5.5,21.3z"/>
<ellipse class="st1" cx="-5.5" cy="31.8" rx="1.2" ry="1.8"/>
</svg>
