<?xml version="1.0" encoding="utf-8"?>
<!-- Generator: Adobe Illustrator 19.0.0, SVG Export Plug-In . SVG Version: 6.00 Build 0)  -->
<svg version="1.1" id="Layer_1" xmlns="http://www.w3.org/2000/svg" xmlns:xlink="http://www.w3.org/1999/xlink" x="0px" y="0px"
	 viewBox="0 0 100 72" style="enable-background:new 0 0 100 72;" xml:space="preserve">
<style type="text/css">
	.st0{clip-path:url(#XMLID_143_);fill:url(#XMLID_144_);}
	.st1{clip-path:url(#XMLID_145_);fill:url(#XMLID_146_);}
	.st2{clip-path:url(#XMLID_147_);fill:url(#XMLID_148_);}
	.st3{clip-path:url(#XMLID_149_);fill:url(#XMLID_150_);}
	.st4{clip-path:url(#XMLID_151_);fill:url(#XMLID_152_);}
	.st5{clip-path:url(#XMLID_153_);fill:url(#XMLID_154_);}
	.st6{clip-path:url(#XMLID_155_);fill:url(#XMLID_156_);}
	.st7{clip-path:url(#XMLID_157_);fill:url(#XMLID_158_);}
	.st8{clip-path:url(#XMLID_159_);fill:url(#XMLID_160_);}
	.st9{clip-path:url(#XMLID_161_);fill:url(#XMLID_162_);}
	.st10{clip-path:url(#XMLID_163_);fill:url(#XMLID_164_);}
	.st11{clip-path:url(#XMLID_165_);fill:url(#XMLID_166_);}
	.st12{clip-path:url(#XMLID_167_);fill:url(#XMLID_168_);}
	.st13{clip-path:url(#XMLID_169_);fill:url(#XMLID_170_);}
	.st14{clip-path:url(#XMLID_171_);fill:url(#XMLID_172_);}
	.st15{clip-path:url(#XMLID_173_);fill:url(#XMLID_174_);}
	.st16{clip-path:url(#XMLID_175_);fill:url(#XMLID_176_);}
	.st17{clip-path:url(#XMLID_177_);fill:url(#XMLID_178_);}
	.st18{clip-path:url(#XMLID_179_);fill:url(#XMLID_180_);}
	.st19{clip-path:url(#XMLID_181_);fill:url(#XMLID_182_);}
	.st20{clip-path:url(#XMLID_183_);fill:url(#XMLID_184_);}
	.st21{clip-path:url(#XMLID_185_);fill:url(#XMLID_186_);}
	.st22{clip-path:url(#XMLID_187_);fill:url(#XMLID_188_);}
	.st23{clip-path:url(#XMLID_189_);fill:url(#XMLID_190_);}
	.st24{clip-path:url(#XMLID_191_);fill:url(#XMLID_192_);}
	.st25{clip-path:url(#XMLID_193_);fill:url(#XMLID_194_);}
	.st26{clip-path:url(#XMLID_195_);fill:url(#XMLID_196_);}
	.st27{clip-path:url(#XMLID_197_);fill:url(#XMLID_198_);}
	.st28{clip-path:url(#XMLID_199_);fill:url(#XMLID_200_);}
	.st29{clip-path:url(#XMLID_201_);fill:url(#XMLID_202_);}
	.st30{clip-path:url(#XMLID_203_);fill:url(#XMLID_204_);}
	.st31{clip-path:url(#XMLID_205_);fill:url(#XMLID_206_);}
	.st32{clip-path:url(#XMLID_207_);fill:url(#XMLID_208_);}
	.st33{clip-path:url(#XMLID_209_);fill:url(#XMLID_210_);}
	.st34{clip-path:url(#XMLID_211_);fill:url(#XMLID_212_);}
	.st35{clip-path:url(#XMLID_213_);fill:url(#XMLID_214_);}
	.st36{clip-path:url(#XMLID_215_);fill:url(#XMLID_216_);}
	.st37{clip-path:url(#XMLID_217_);fill:url(#XMLID_218_);}
	.st38{clip-path:url(#XMLID_219_);fill:url(#XMLID_220_);}
</style>
<g id="XMLID_2_">
	<g id="XMLID_140_">
		<defs>
			<path id="XMLID_141_" d="M43.4,52.1c2.2,0.7,4.5,1,7,1c2.5,0,4.8-0.4,7-1H43.4z"/>
		</defs>
		<clipPath id="XMLID_143_">
			<use xlink:href="#XMLID_141_"  style="overflow:visible;"/>
		</clipPath>
		
			<linearGradient id="XMLID_144_" gradientUnits="userSpaceOnUse" x1="-254.4536" y1="466.9095" x2="-254.1569" y2="466.9095" gradientTransform="matrix(250.6362 -250.6362 -250.6362 -250.6362 180816.6719 53335.1055)">
			<stop  offset="0" style="stop-color:#9D645A"/>
			<stop  offset="0.1441" style="stop-color:#BD8B7D"/>
			<stop  offset="0.2936" style="stop-color:#D8AD9B"/>
			<stop  offset="0.4176" style="stop-color:#E9C2AD"/>
			<stop  offset="0.5" style="stop-color:#EFC9B4"/>
			<stop  offset="0.6124" style="stop-color:#DDB59F"/>
			<stop  offset="0.8429" style="stop-color:#B1806A"/>
			<stop  offset="1" style="stop-color:#905942"/>
		</linearGradient>
		<polygon id="XMLID_142_" class="st0" points="42.9,52.6 50.4,45.1 57.9,52.6 50.4,60.1 		"/>
	</g>
	<g id="XMLID_137_">
		<defs>
			<path id="XMLID_138_" d="M31.7,43.9c0.4,0.6,0.9,1.1,1.3,1.6h5.5c-0.4-0.5-0.7-1.1-1-1.6H31.7z"/>
		</defs>
		<clipPath id="XMLID_145_">
			<use xlink:href="#XMLID_138_"  style="overflow:visible;"/>
		</clipPath>
		
			<linearGradient id="XMLID_146_" gradientUnits="userSpaceOnUse" x1="-254.4701" y1="466.8004" x2="-254.1735" y2="466.8004" gradientTransform="matrix(262.3877 -262.3877 -262.3877 -262.3877 189257.0156 55788.1602)">
			<stop  offset="0" style="stop-color:#9D645A"/>
			<stop  offset="0.1441" style="stop-color:#BD8B7D"/>
			<stop  offset="0.2936" style="stop-color:#D8AD9B"/>
			<stop  offset="0.4176" style="stop-color:#E9C2AD"/>
			<stop  offset="0.5" style="stop-color:#EFC9B4"/>
			<stop  offset="0.6124" style="stop-color:#DDB59F"/>
			<stop  offset="0.8429" style="stop-color:#B1806A"/>
			<stop  offset="1" style="stop-color:#905942"/>
		</linearGradient>
		<polygon id="XMLID_139_" class="st1" points="30.9,44.7 35.1,40.5 39.3,44.7 35.1,48.9 		"/>
	</g>
	<g id="XMLID_134_">
		<defs>
			<path id="XMLID_135_" d="M60,48c-0.5,0.5-1.1,0.9-1.7,1.3h5c0.6-0.4,1.2-0.9,1.8-1.3H60z"/>
		</defs>
		<clipPath id="XMLID_147_">
			<use xlink:href="#XMLID_135_"  style="overflow:visible;"/>
		</clipPath>
		
			<linearGradient id="XMLID_148_" gradientUnits="userSpaceOnUse" x1="-254.4572" y1="466.9425" x2="-254.1651" y2="466.9425" gradientTransform="matrix(259.8012 -259.8012 -259.8012 -259.8012 187440.5 55294.2656)">
			<stop  offset="0" style="stop-color:#9D645A"/>
			<stop  offset="0.1441" style="stop-color:#BD8B7D"/>
			<stop  offset="0.2936" style="stop-color:#D8AD9B"/>
			<stop  offset="0.4176" style="stop-color:#E9C2AD"/>
			<stop  offset="0.5" style="stop-color:#EFC9B4"/>
			<stop  offset="0.6124" style="stop-color:#DDB59F"/>
			<stop  offset="0.8429" style="stop-color:#B1806A"/>
			<stop  offset="1" style="stop-color:#905942"/>
		</linearGradient>
		<polygon id="XMLID_136_" class="st2" points="57.6,48.6 61.7,44.6 65.7,48.6 61.7,52.7 		"/>
	</g>
	<g id="XMLID_131_">
		<defs>
			<path id="XMLID_132_" d="M63.2,43.9c-0.3,0.6-0.7,1.1-1,1.6h5.5c0.5-0.5,0.9-1.1,1.3-1.6H63.2z"/>
		</defs>
		<clipPath id="XMLID_149_">
			<use xlink:href="#XMLID_132_"  style="overflow:visible;"/>
		</clipPath>
		
			<linearGradient id="XMLID_150_" gradientUnits="userSpaceOnUse" x1="-254.4644" y1="466.942" x2="-254.1652" y2="466.942" gradientTransform="matrix(261.4453 -261.4453 -261.4453 -261.4453 188626.8438 55643.0117)">
			<stop  offset="0" style="stop-color:#9D645A"/>
			<stop  offset="0.1441" style="stop-color:#BD8B7D"/>
			<stop  offset="0.2936" style="stop-color:#D8AD9B"/>
			<stop  offset="0.4176" style="stop-color:#E9C2AD"/>
			<stop  offset="0.5" style="stop-color:#EFC9B4"/>
			<stop  offset="0.6124" style="stop-color:#DDB59F"/>
			<stop  offset="0.8429" style="stop-color:#B1806A"/>
			<stop  offset="1" style="stop-color:#905942"/>
		</linearGradient>
		<polygon id="XMLID_133_" class="st3" points="61.4,44.7 65.6,40.5 69.8,44.7 65.6,48.9 		"/>
	</g>
	<g id="XMLID_128_">
		<defs>
			<path id="XMLID_129_" d="M26.6,31.6c0.1,0.8,0.3,1.7,0.5,2.5h7.1c-0.1-0.8-0.2-1.6-0.3-2.5H26.6z"/>
		</defs>
		<clipPath id="XMLID_151_">
			<use xlink:href="#XMLID_129_"  style="overflow:visible;"/>
		</clipPath>
		
			<linearGradient id="XMLID_152_" gradientUnits="userSpaceOnUse" x1="-254.4781" y1="466.7238" x2="-254.1882" y2="466.7238" gradientTransform="matrix(266.0328 -266.0328 -266.0328 -266.0328 191861.8125 56529.1211)">
			<stop  offset="0" style="stop-color:#9D645A"/>
			<stop  offset="0.1441" style="stop-color:#BD8B7D"/>
			<stop  offset="0.2936" style="stop-color:#D8AD9B"/>
			<stop  offset="0.4176" style="stop-color:#E9C2AD"/>
			<stop  offset="0.5" style="stop-color:#EFC9B4"/>
			<stop  offset="0.6124" style="stop-color:#DDB59F"/>
			<stop  offset="0.8429" style="stop-color:#B1806A"/>
			<stop  offset="1" style="stop-color:#905942"/>
		</linearGradient>
		<polygon id="XMLID_130_" class="st4" points="25.3,32.9 30.4,27.8 35.5,32.9 30.4,38 		"/>
	</g>
	<g id="XMLID_125_">
		<defs>
			<path id="XMLID_126_" d="M66.2,35.7c-0.2,0.8-0.3,1.5-0.5,2.2h6.7c0.3-0.7,0.6-1.4,0.8-2.2H66.2z"/>
		</defs>
		<clipPath id="XMLID_153_">
			<use xlink:href="#XMLID_126_"  style="overflow:visible;"/>
		</clipPath>
		
			<linearGradient id="XMLID_154_" gradientUnits="userSpaceOnUse" x1="-254.4624" y1="466.9213" x2="-254.1766" y2="466.9213" gradientTransform="matrix(263.5504 -263.5504 -263.5504 -263.5504 190140.0156 56080.8008)">
			<stop  offset="0" style="stop-color:#9D645A"/>
			<stop  offset="0.1441" style="stop-color:#BD8B7D"/>
			<stop  offset="0.2936" style="stop-color:#D8AD9B"/>
			<stop  offset="0.4176" style="stop-color:#E9C2AD"/>
			<stop  offset="0.5" style="stop-color:#EFC9B4"/>
			<stop  offset="0.6124" style="stop-color:#DDB59F"/>
			<stop  offset="0.8429" style="stop-color:#B1806A"/>
			<stop  offset="1" style="stop-color:#905942"/>
		</linearGradient>
		<polygon id="XMLID_127_" class="st5" points="64.6,36.8 69.4,32 74.3,36.8 69.4,41.7 		"/>
	</g>
	<g id="XMLID_122_">
		<defs>
			<path id="XMLID_123_" d="M67,27.4c0,1-0.1,2.1-0.1,3.1l7.4,0c0.1-1,0.2-2,0.2-3.1H67z"/>
		</defs>
		<clipPath id="XMLID_155_">
			<use xlink:href="#XMLID_123_"  style="overflow:visible;"/>
		</clipPath>
		
			<linearGradient id="XMLID_156_" gradientUnits="userSpaceOnUse" x1="-254.4766" y1="466.8899" x2="-254.1774" y2="466.8899" gradientTransform="matrix(267.3135 -267.3135 -267.3135 -267.3135 192844.25 56867.3359)">
			<stop  offset="0" style="stop-color:#9D645A"/>
			<stop  offset="0.1441" style="stop-color:#BD8B7D"/>
			<stop  offset="0.2936" style="stop-color:#D8AD9B"/>
			<stop  offset="0.4176" style="stop-color:#E9C2AD"/>
			<stop  offset="0.5" style="stop-color:#EFC9B4"/>
			<stop  offset="0.6124" style="stop-color:#DDB59F"/>
			<stop  offset="0.8429" style="stop-color:#B1806A"/>
			<stop  offset="1" style="stop-color:#905942"/>
		</linearGradient>
		<polygon id="XMLID_124_" class="st6" points="65.4,28.9 70.7,23.6 76,28.9 70.7,34.3 		"/>
	</g>
	<g id="XMLID_119_">
		<defs>
			<path id="XMLID_120_" d="M29.2,39.8c0.3,0.7,0.7,1.3,1,1.9h6.2c-0.3-0.6-0.5-1.2-0.7-1.9H29.2z"/>
		</defs>
		<clipPath id="XMLID_157_">
			<use xlink:href="#XMLID_120_"  style="overflow:visible;"/>
		</clipPath>
		
			<linearGradient id="XMLID_158_" gradientUnits="userSpaceOnUse" x1="-254.473" y1="466.7711" x2="-254.1797" y2="466.7711" gradientTransform="matrix(265.5916 -265.5916 -265.5916 -265.5916 191558.5625 56455.918)">
			<stop  offset="0" style="stop-color:#9D645A"/>
			<stop  offset="0.1441" style="stop-color:#BD8B7D"/>
			<stop  offset="0.2936" style="stop-color:#D8AD9B"/>
			<stop  offset="0.4176" style="stop-color:#E9C2AD"/>
			<stop  offset="0.5" style="stop-color:#EFC9B4"/>
			<stop  offset="0.6124" style="stop-color:#DDB59F"/>
			<stop  offset="0.8429" style="stop-color:#B1806A"/>
			<stop  offset="1" style="stop-color:#905942"/>
		</linearGradient>
		<polygon id="XMLID_121_" class="st7" points="28.2,40.8 32.8,36.2 37.3,40.8 32.8,45.3 		"/>
	</g>
	<g id="XMLID_116_">
		<defs>
			<path id="XMLID_117_" d="M26.2,27.4c0,1,0.1,2.1,0.2,3.1h7.4c-0.1-1-0.1-2-0.1-3.1H26.2z"/>
		</defs>
		<clipPath id="XMLID_159_">
			<use xlink:href="#XMLID_117_"  style="overflow:visible;"/>
		</clipPath>
		
			<linearGradient id="XMLID_160_" gradientUnits="userSpaceOnUse" x1="-254.4878" y1="466.707" x2="-254.1864" y2="466.707" gradientTransform="matrix(267.9084 -267.9084 -267.9084 -267.9084 193208.5625 56919.8438)">
			<stop  offset="0" style="stop-color:#9D645A"/>
			<stop  offset="0.1441" style="stop-color:#BD8B7D"/>
			<stop  offset="0.2936" style="stop-color:#D8AD9B"/>
			<stop  offset="0.4176" style="stop-color:#E9C2AD"/>
			<stop  offset="0.5" style="stop-color:#EFC9B4"/>
			<stop  offset="0.6124" style="stop-color:#DDB59F"/>
			<stop  offset="0.8429" style="stop-color:#B1806A"/>
			<stop  offset="1" style="stop-color:#905942"/>
		</linearGradient>
		<polygon id="XMLID_118_" class="st8" points="24.7,28.9 30,23.6 35.3,28.9 30,34.3 		"/>
	</g>
	<g id="XMLID_113_">
		<defs>
			<path id="XMLID_114_" d="M27.5,35.7c0.2,0.7,0.5,1.5,0.8,2.2H35c-0.2-0.7-0.4-1.4-0.5-2.2H27.5z"/>
		</defs>
		<clipPath id="XMLID_161_">
			<use xlink:href="#XMLID_114_"  style="overflow:visible;"/>
		</clipPath>
		
			<linearGradient id="XMLID_162_" gradientUnits="userSpaceOnUse" x1="-254.4749" y1="466.7473" x2="-254.1869" y2="466.7473" gradientTransform="matrix(265.6905 -265.6905 -265.6905 -265.6905 191622 56466.7422)">
			<stop  offset="0" style="stop-color:#9D645A"/>
			<stop  offset="0.1441" style="stop-color:#BD8B7D"/>
			<stop  offset="0.2936" style="stop-color:#D8AD9B"/>
			<stop  offset="0.4176" style="stop-color:#E9C2AD"/>
			<stop  offset="0.5" style="stop-color:#EFC9B4"/>
			<stop  offset="0.6124" style="stop-color:#DDB59F"/>
			<stop  offset="0.8429" style="stop-color:#B1806A"/>
			<stop  offset="1" style="stop-color:#905942"/>
		</linearGradient>
		<polygon id="XMLID_115_" class="st9" points="26.4,36.8 31.3,32 36.1,36.8 31.3,41.7 		"/>
	</g>
	<g id="XMLID_110_">
		<defs>
			<path id="XMLID_111_" d="M35.7,48c0.6,0.5,1.2,0.9,1.8,1.3h5c-0.6-0.4-1.2-0.8-1.7-1.3H35.7z"/>
		</defs>
		<clipPath id="XMLID_163_">
			<use xlink:href="#XMLID_111_"  style="overflow:visible;"/>
		</clipPath>
		
			<linearGradient id="XMLID_164_" gradientUnits="userSpaceOnUse" x1="-254.4476" y1="466.8458" x2="-254.1519" y2="466.8458" gradientTransform="matrix(238.1862 -238.1862 -238.1862 -238.1862 171812.9844 50667.1445)">
			<stop  offset="0" style="stop-color:#9D645A"/>
			<stop  offset="0.1441" style="stop-color:#BD8B7D"/>
			<stop  offset="0.2936" style="stop-color:#D8AD9B"/>
			<stop  offset="0.4176" style="stop-color:#E9C2AD"/>
			<stop  offset="0.5" style="stop-color:#EFC9B4"/>
			<stop  offset="0.6124" style="stop-color:#DDB59F"/>
			<stop  offset="0.8429" style="stop-color:#B1806A"/>
			<stop  offset="1" style="stop-color:#905942"/>
		</linearGradient>
		<polygon id="XMLID_112_" class="st10" points="35,48.6 39,44.6 43.1,48.6 39,52.7 		"/>
	</g>
	<g id="XMLID_107_">
		<defs>
			<path id="XMLID_108_" d="M26.2,26.6h7.5c0-13.7,5.3-24.8,16.7-24.8c11.4,0,16.7,11.1,16.7,24.8h7.5c0-14.5-10-26.2-24.2-26.2
				S26.2,12.1,26.2,26.6"/>
		</defs>
		<clipPath id="XMLID_165_">
			<use xlink:href="#XMLID_108_"  style="overflow:visible;"/>
		</clipPath>
		
			<linearGradient id="XMLID_166_" gradientUnits="userSpaceOnUse" x1="-254.489" y1="466.7744" x2="-254.1953" y2="466.7744" gradientTransform="matrix(268.4518 -268.4518 -268.4518 -268.4518 193622.0781 57054.5977)">
			<stop  offset="0" style="stop-color:#9D645A"/>
			<stop  offset="0.1441" style="stop-color:#BD8B7D"/>
			<stop  offset="0.2936" style="stop-color:#D8AD9B"/>
			<stop  offset="0.4176" style="stop-color:#E9C2AD"/>
			<stop  offset="0.5" style="stop-color:#EFC9B4"/>
			<stop  offset="0.6124" style="stop-color:#DDB59F"/>
			<stop  offset="0.8429" style="stop-color:#B1806A"/>
			<stop  offset="1" style="stop-color:#905942"/>
		</linearGradient>
		<polygon id="XMLID_109_" class="st11" points="13.1,13.5 50.4,-23.8 87.6,13.5 50.4,50.8 		"/>
	</g>
	<g id="XMLID_104_">
		<defs>
			<path id="XMLID_105_" d="M66.8,31.6c-0.1,0.8-0.2,1.7-0.3,2.5h7.1c0.2-0.8,0.4-1.6,0.5-2.5H66.8z"/>
		</defs>
		<clipPath id="XMLID_167_">
			<use xlink:href="#XMLID_105_"  style="overflow:visible;"/>
		</clipPath>
		
			<linearGradient id="XMLID_168_" gradientUnits="userSpaceOnUse" x1="-254.4746" y1="466.9083" x2="-254.1744" y2="466.9083" gradientTransform="matrix(264.7032 -264.7032 -264.7032 -264.7032 190967.1562 56320.2812)">
			<stop  offset="0" style="stop-color:#9D645A"/>
			<stop  offset="0.1441" style="stop-color:#BD8B7D"/>
			<stop  offset="0.2936" style="stop-color:#D8AD9B"/>
			<stop  offset="0.4176" style="stop-color:#E9C2AD"/>
			<stop  offset="0.5" style="stop-color:#EFC9B4"/>
			<stop  offset="0.6124" style="stop-color:#DDB59F"/>
			<stop  offset="0.8429" style="stop-color:#B1806A"/>
			<stop  offset="1" style="stop-color:#905942"/>
		</linearGradient>
		<polygon id="XMLID_106_" class="st12" points="65.2,32.9 70.3,27.8 75.4,32.9 70.3,38 		"/>
	</g>
	<g id="XMLID_101_">
		<defs>
			<path id="XMLID_102_" d="M65.1,39.8c-0.2,0.7-0.5,1.3-0.7,1.9h6.2c0.4-0.6,0.7-1.2,1-1.9H65.1z"/>
		</defs>
		<clipPath id="XMLID_169_">
			<use xlink:href="#XMLID_102_"  style="overflow:visible;"/>
		</clipPath>
		
			<linearGradient id="XMLID_170_" gradientUnits="userSpaceOnUse" x1="-254.4618" y1="466.9331" x2="-254.1734" y2="466.9331" gradientTransform="matrix(262.4992 -262.4992 -262.4992 -262.4992 189385.1562 55862.6562)">
			<stop  offset="0" style="stop-color:#9D645A"/>
			<stop  offset="0.1441" style="stop-color:#BD8B7D"/>
			<stop  offset="0.2936" style="stop-color:#D8AD9B"/>
			<stop  offset="0.4176" style="stop-color:#E9C2AD"/>
			<stop  offset="0.5" style="stop-color:#EFC9B4"/>
			<stop  offset="0.6124" style="stop-color:#DDB59F"/>
			<stop  offset="0.8429" style="stop-color:#B1806A"/>
			<stop  offset="1" style="stop-color:#905942"/>
		</linearGradient>
		<polygon id="XMLID_103_" class="st13" points="63.4,40.8 67.9,36.2 72.5,40.8 67.9,45.3 		"/>
	</g>
	<g id="XMLID_95_">
		<defs>
			<path id="XMLID_96_" d="M30.7,69.7h0.9c0.4,0,0.8,0.3,0.8,0.7c0,0.4-0.3,0.7-0.7,0.7h-0.9V69.7z M30.7,68.1h0.8
				c0.4,0,0.7,0.2,0.7,0.5c0,0.3-0.3,0.5-0.7,0.5h-0.8V68.1z M30,67.6v4h1.6c0.9,0,1.3-0.5,1.3-1.2c0-0.5-0.5-0.9-0.8-1v0
				c0.3-0.1,0.6-0.4,0.6-0.8c0-0.6-0.5-1-1.2-1H30z"/>
		</defs>
		<clipPath id="XMLID_171_">
			<use xlink:href="#XMLID_96_"  style="overflow:visible;"/>
		</clipPath>
		
			<linearGradient id="XMLID_172_" gradientUnits="userSpaceOnUse" x1="-254.4764" y1="466.8859" x2="-254.1771" y2="466.8859" gradientTransform="matrix(287.3325 -287.3325 -287.3325 -287.3325 207281.7812 61122.3203)">
			<stop  offset="0" style="stop-color:#9D645A"/>
			<stop  offset="0.1441" style="stop-color:#BD8B7D"/>
			<stop  offset="0.2936" style="stop-color:#D8AD9B"/>
			<stop  offset="0.4176" style="stop-color:#E9C2AD"/>
			<stop  offset="0.5" style="stop-color:#EFC9B4"/>
			<stop  offset="0.6124" style="stop-color:#DDB59F"/>
			<stop  offset="0.8429" style="stop-color:#B1806A"/>
			<stop  offset="1" style="stop-color:#905942"/>
		</linearGradient>
		<polygon id="XMLID_100_" class="st14" points="28.1,69.6 31.5,66.1 35,69.6 31.5,73 		"/>
	</g>
	<g id="XMLID_90_">
		<defs>
			<path id="XMLID_91_" d="M35.8,68.9c0.1-0.2,0.2-0.5,0.2-0.5h0c0,0,0.1,0.3,0.2,0.5l0.5,1.2h-1.4L35.8,68.9z M35.7,67.6l-1.7,4
				h0.7l0.4-0.9h1.8l0.4,0.9h0.7l-1.7-4H35.7z"/>
		</defs>
		<clipPath id="XMLID_173_">
			<use xlink:href="#XMLID_91_"  style="overflow:visible;"/>
		</clipPath>
		
			<linearGradient id="XMLID_174_" gradientUnits="userSpaceOnUse" x1="-254.4723" y1="466.907" x2="-254.187" y2="466.907" gradientTransform="matrix(290.7415 -290.7415 -290.7415 -290.7415 209749.7344 61854.2578)">
			<stop  offset="0" style="stop-color:#9D645A"/>
			<stop  offset="0.1441" style="stop-color:#BD8B7D"/>
			<stop  offset="0.2936" style="stop-color:#D8AD9B"/>
			<stop  offset="0.4176" style="stop-color:#E9C2AD"/>
			<stop  offset="0.5" style="stop-color:#EFC9B4"/>
			<stop  offset="0.6124" style="stop-color:#DDB59F"/>
			<stop  offset="0.8429" style="stop-color:#B1806A"/>
			<stop  offset="1" style="stop-color:#905942"/>
		</linearGradient>
		<polygon id="XMLID_94_" class="st15" points="32,69.6 36,65.6 39.9,69.6 36,73.5 		"/>
	</g>
	<g id="XMLID_85_">
		<defs>
			<path id="XMLID_86_" d="M39.8,68.2h0.7c0.5,0,0.8,0.3,0.8,0.7c0,0.4-0.3,0.7-0.8,0.7h-0.7V68.2z M39.2,67.6v4h0.6v-1.4h0.7
				c0,0,0.1,0,0.1,0l0.8,1.4h0.7L41.2,70c0.5-0.2,0.8-0.6,0.8-1.1c0-0.8-0.6-1.3-1.5-1.3H39.2z"/>
		</defs>
		<clipPath id="XMLID_175_">
			<use xlink:href="#XMLID_86_"  style="overflow:visible;"/>
		</clipPath>
		
			<linearGradient id="XMLID_176_" gradientUnits="userSpaceOnUse" x1="-254.4716" y1="466.9254" x2="-254.1723" y2="466.9254" gradientTransform="matrix(286.6908 -286.6908 -286.6908 -286.6908 206832.7031 61003.9648)">
			<stop  offset="0" style="stop-color:#9D645A"/>
			<stop  offset="0.1441" style="stop-color:#BD8B7D"/>
			<stop  offset="0.2936" style="stop-color:#D8AD9B"/>
			<stop  offset="0.4176" style="stop-color:#E9C2AD"/>
			<stop  offset="0.5" style="stop-color:#EFC9B4"/>
			<stop  offset="0.6124" style="stop-color:#DDB59F"/>
			<stop  offset="0.8429" style="stop-color:#B1806A"/>
			<stop  offset="1" style="stop-color:#905942"/>
		</linearGradient>
		<polygon id="XMLID_89_" class="st16" points="37.2,69.6 40.7,66.1 44.1,69.6 40.7,73 		"/>
	</g>
	<g id="XMLID_82_">
		<defs>
			<polygon id="XMLID_83_" points="48.5,67.6 48.5,71.5 51.3,71.5 51.3,71 49.2,71 49.2,69.8 50.8,69.8 50.8,69.2 49.2,69.2 
				49.2,68.2 51.2,68.2 51.2,67.6 			"/>
		</defs>
		<clipPath id="XMLID_177_">
			<use xlink:href="#XMLID_83_"  style="overflow:visible;"/>
		</clipPath>
		
			<linearGradient id="XMLID_178_" gradientUnits="userSpaceOnUse" x1="-254.4685" y1="466.9652" x2="-254.1582" y2="466.9652" gradientTransform="matrix(287.5435 -287.5435 -287.5435 -287.5435 207461.2188 61203.8633)">
			<stop  offset="0" style="stop-color:#9D645A"/>
			<stop  offset="0.1441" style="stop-color:#BD8B7D"/>
			<stop  offset="0.2936" style="stop-color:#D8AD9B"/>
			<stop  offset="0.4176" style="stop-color:#E9C2AD"/>
			<stop  offset="0.5" style="stop-color:#EFC9B4"/>
			<stop  offset="0.6124" style="stop-color:#DDB59F"/>
			<stop  offset="0.8429" style="stop-color:#B1806A"/>
			<stop  offset="1" style="stop-color:#905942"/>
		</linearGradient>
		<polygon id="XMLID_84_" class="st17" points="46.6,69.6 49.9,66.2 53.2,69.6 49.9,72.9 		"/>
	</g>
	<g id="XMLID_79_">
		<defs>
			<polygon id="XMLID_80_" points="52.9,67.6 52.9,71.5 55.6,71.5 55.6,71 53.6,71 53.6,67.6 			"/>
		</defs>
		<clipPath id="XMLID_179_">
			<use xlink:href="#XMLID_80_"  style="overflow:visible;"/>
		</clipPath>
		
			<linearGradient id="XMLID_180_" gradientUnits="userSpaceOnUse" x1="-254.4817" y1="466.9673" x2="-254.1689" y2="466.9673" gradientTransform="matrix(308.2629 -308.2629 -308.2629 -308.2629 222412.6719 65608.5312)">
			<stop  offset="0" style="stop-color:#9D645A"/>
			<stop  offset="0.1441" style="stop-color:#BD8B7D"/>
			<stop  offset="0.2936" style="stop-color:#D8AD9B"/>
			<stop  offset="0.4176" style="stop-color:#E9C2AD"/>
			<stop  offset="0.5" style="stop-color:#EFC9B4"/>
			<stop  offset="0.6124" style="stop-color:#DDB59F"/>
			<stop  offset="0.8429" style="stop-color:#B1806A"/>
			<stop  offset="1" style="stop-color:#905942"/>
		</linearGradient>
		<polygon id="XMLID_81_" class="st18" points="51,69.6 54.3,66.3 57.6,69.6 54.3,72.9 		"/>
	</g>
	<g id="XMLID_76_">
		<defs>
			<path id="XMLID_77_" d="M64.8,67.6v1.7c0,0.6,0,1.2,0,1.2h0c0,0-0.4-0.6-0.7-0.9l-1.4-1.9h-0.6v4h0.6v-1.7c0-0.7,0-1.2,0-1.2h0
				c0,0,0.3,0.5,0.7,1l1.4,1.9h0.6v-4H64.8z"/>
		</defs>
		<clipPath id="XMLID_181_">
			<use xlink:href="#XMLID_77_"  style="overflow:visible;"/>
		</clipPath>
		
			<linearGradient id="XMLID_182_" gradientUnits="userSpaceOnUse" x1="-254.4475" y1="467.0259" x2="-254.1682" y2="467.0259" gradientTransform="matrix(283.9552 -283.9552 -283.9552 -283.9552 204893.4219 60468.7891)">
			<stop  offset="0" style="stop-color:#9D645A"/>
			<stop  offset="0.1441" style="stop-color:#BD8B7D"/>
			<stop  offset="0.2936" style="stop-color:#D8AD9B"/>
			<stop  offset="0.4176" style="stop-color:#E9C2AD"/>
			<stop  offset="0.5" style="stop-color:#EFC9B4"/>
			<stop  offset="0.6124" style="stop-color:#DDB59F"/>
			<stop  offset="0.8429" style="stop-color:#B1806A"/>
			<stop  offset="1" style="stop-color:#905942"/>
		</linearGradient>
		<polygon id="XMLID_78_" class="st19" points="60.2,69.6 63.8,65.9 67.4,69.6 63.8,73.2 		"/>
	</g>
	<g id="XMLID_71_">
		<defs>
			<path id="XMLID_72_" d="M68.5,68.9c0.1-0.2,0.2-0.5,0.2-0.5h0c0,0,0.1,0.3,0.2,0.5l0.5,1.2H68L68.5,68.9z M68.4,67.6l-1.7,4h0.7
				l0.4-0.9h1.8l0.4,0.9h0.7l-1.7-4H68.4z"/>
		</defs>
		<clipPath id="XMLID_183_">
			<use xlink:href="#XMLID_72_"  style="overflow:visible;"/>
		</clipPath>
		
			<linearGradient id="XMLID_184_" gradientUnits="userSpaceOnUse" x1="-254.4491" y1="467.044" x2="-254.1669" y2="467.044" gradientTransform="matrix(290.7467 -290.7467 -290.7467 -290.7467 209800.2656 61921.0156)">
			<stop  offset="0" style="stop-color:#9D645A"/>
			<stop  offset="0.1441" style="stop-color:#BD8B7D"/>
			<stop  offset="0.2936" style="stop-color:#D8AD9B"/>
			<stop  offset="0.4176" style="stop-color:#E9C2AD"/>
			<stop  offset="0.5" style="stop-color:#EFC9B4"/>
			<stop  offset="0.6124" style="stop-color:#DDB59F"/>
			<stop  offset="0.8429" style="stop-color:#B1806A"/>
			<stop  offset="1" style="stop-color:#905942"/>
		</linearGradient>
		<polygon id="XMLID_75_" class="st20" points="64.8,69.6 68.7,65.6 72.6,69.6 68.7,73.5 		"/>
	</g>
	<g id="XMLID_68_">
		<defs>
			<path id="XMLID_69_" d="M43.3,69.6c0,1.2,0.9,2.1,2,2.1c0.8,0,1.5-0.5,1.9-1.2l-0.6-0.2c-0.2,0.4-0.7,0.7-1.2,0.7
				c-0.8,0-1.4-0.6-1.4-1.4c0-0.9,0.6-1.4,1.4-1.4c0.5,0,0.9,0.2,1.2,0.6l0.6-0.2c-0.4-0.6-1-1-1.8-1C44.2,67.5,43.3,68.4,43.3,69.6
				"/>
		</defs>
		<clipPath id="XMLID_185_">
			<use xlink:href="#XMLID_69_"  style="overflow:visible;"/>
		</clipPath>
		
			<linearGradient id="XMLID_186_" gradientUnits="userSpaceOnUse" x1="-254.462" y1="466.9506" x2="-254.1603" y2="466.9506" gradientTransform="matrix(279.0618 -279.0618 -279.0618 -279.0618 201336.2656 59394.6367)">
			<stop  offset="0" style="stop-color:#9D645A"/>
			<stop  offset="0.1441" style="stop-color:#BD8B7D"/>
			<stop  offset="0.2936" style="stop-color:#D8AD9B"/>
			<stop  offset="0.4176" style="stop-color:#E9C2AD"/>
			<stop  offset="0.5" style="stop-color:#EFC9B4"/>
			<stop  offset="0.6124" style="stop-color:#DDB59F"/>
			<stop  offset="0.8429" style="stop-color:#B1806A"/>
			<stop  offset="1" style="stop-color:#905942"/>
		</linearGradient>
		<polygon id="XMLID_70_" class="st21" points="41.2,69.6 45.2,65.6 49.2,69.6 45.2,73.6 		"/>
	</g>
	<g id="XMLID_63_">
		<defs>
			<path id="XMLID_64_" d="M57.2,69.6c0-0.9,0.6-1.4,1.4-1.4c0.8,0,1.4,0.6,1.4,1.4c0,0.9-0.6,1.4-1.4,1.4
				C57.8,71,57.2,70.4,57.2,69.6 M56.6,69.6c0,1.2,0.9,2.1,2,2.1c1.1,0,2.1-0.9,2.1-2.1c0-1.2-0.9-2.1-2.1-2.1
				C57.5,67.5,56.6,68.4,56.6,69.6"/>
		</defs>
		<clipPath id="XMLID_187_">
			<use xlink:href="#XMLID_64_"  style="overflow:visible;"/>
		</clipPath>
		
			<linearGradient id="XMLID_188_" gradientUnits="userSpaceOnUse" x1="-254.4557" y1="467.0092" x2="-254.1629" y2="467.0092" gradientTransform="matrix(279.1013 -279.1013 -279.1013 -279.1013 201385 59428.9453)">
			<stop  offset="0" style="stop-color:#9D645A"/>
			<stop  offset="0.1441" style="stop-color:#BD8B7D"/>
			<stop  offset="0.2936" style="stop-color:#D8AD9B"/>
			<stop  offset="0.4176" style="stop-color:#E9C2AD"/>
			<stop  offset="0.5" style="stop-color:#EFC9B4"/>
			<stop  offset="0.6124" style="stop-color:#DDB59F"/>
			<stop  offset="0.8429" style="stop-color:#B1806A"/>
			<stop  offset="1" style="stop-color:#905942"/>
		</linearGradient>
		<polygon id="XMLID_67_" class="st22" points="54.5,69.6 58.6,65.5 62.7,69.6 58.6,73.7 		"/>
	</g>
	<g id="XMLID_58_">
		<defs>
			<path id="XMLID_59_" d="M61.2,61c0-1.2,0.8-2,1.9-2c1.1,0,1.9,0.8,1.9,2c0,1.2-0.8,2-1.9,2C62,63,61.2,62.2,61.2,61 M60.3,61
				c0,1.6,1.2,2.8,2.8,2.8c1.5,0,2.8-1.2,2.8-2.8c0-1.6-1.3-2.8-2.8-2.8C61.6,58.2,60.3,59.4,60.3,61"/>
		</defs>
		<clipPath id="XMLID_189_">
			<use xlink:href="#XMLID_59_"  style="overflow:visible;"/>
		</clipPath>
		
			<linearGradient id="XMLID_190_" gradientUnits="userSpaceOnUse" x1="-254.454" y1="466.9911" x2="-254.1667" y2="466.9911" gradientTransform="matrix(279.0987 -279.0987 -279.0987 -279.0987 201377.0312 59420.3164)">
			<stop  offset="0" style="stop-color:#9D645A"/>
			<stop  offset="0.1441" style="stop-color:#BD8B7D"/>
			<stop  offset="0.2936" style="stop-color:#D8AD9B"/>
			<stop  offset="0.4176" style="stop-color:#E9C2AD"/>
			<stop  offset="0.5" style="stop-color:#EFC9B4"/>
			<stop  offset="0.6124" style="stop-color:#DDB59F"/>
			<stop  offset="0.8429" style="stop-color:#B1806A"/>
			<stop  offset="1" style="stop-color:#905942"/>
		</linearGradient>
		<polygon id="XMLID_62_" class="st23" points="57.5,61 63.1,55.4 68.7,61 63.1,66.6 		"/>
	</g>
	<g id="XMLID_53_">
		<defs>
			<path id="XMLID_54_" d="M68.1,59.1h1c0.7,0,1.1,0.4,1.1,0.9c0,0.5-0.4,1-1.1,1h-1V59.1z M67.3,58.3v5.4h0.9v-1.9H69
				c0.1,0,0.1,0,0.2,0l1.1,1.9h1L70,61.6c0.7-0.3,1.1-0.8,1.1-1.5c0-1.1-0.8-1.7-2.1-1.7H67.3z"/>
		</defs>
		<clipPath id="XMLID_191_">
			<use xlink:href="#XMLID_54_"  style="overflow:visible;"/>
		</clipPath>
		
			<linearGradient id="XMLID_192_" gradientUnits="userSpaceOnUse" x1="-254.4526" y1="467.009" x2="-254.1611" y2="467.009" gradientTransform="matrix(286.6948 -286.6948 -286.6948 -286.6948 206864.1562 61044.2773)">
			<stop  offset="0" style="stop-color:#9D645A"/>
			<stop  offset="0.1441" style="stop-color:#BD8B7D"/>
			<stop  offset="0.2936" style="stop-color:#D8AD9B"/>
			<stop  offset="0.4176" style="stop-color:#E9C2AD"/>
			<stop  offset="0.5" style="stop-color:#EFC9B4"/>
			<stop  offset="0.6124" style="stop-color:#DDB59F"/>
			<stop  offset="0.8429" style="stop-color:#B1806A"/>
			<stop  offset="1" style="stop-color:#905942"/>
		</linearGradient>
		<polygon id="XMLID_57_" class="st24" points="64.6,61 69.3,56.3 74,61 69.3,65.7 		"/>
	</g>
	<g id="XMLID_50_">
		<defs>
			<polygon id="XMLID_51_" points="72.1,58.3 72.1,59.1 73.9,59.1 73.9,63.7 74.7,63.7 74.7,59.1 76.4,59.1 76.4,58.3 			"/>
		</defs>
		<clipPath id="XMLID_193_">
			<use xlink:href="#XMLID_51_"  style="overflow:visible;"/>
		</clipPath>
		
			<linearGradient id="XMLID_194_" gradientUnits="userSpaceOnUse" x1="-254.459" y1="467.0193" x2="-254.153" y2="467.0193" gradientTransform="matrix(293.5529 -293.5529 -293.5529 -293.5529 211815.375 62509.6797)">
			<stop  offset="0" style="stop-color:#9D645A"/>
			<stop  offset="0.1441" style="stop-color:#BD8B7D"/>
			<stop  offset="0.2936" style="stop-color:#D8AD9B"/>
			<stop  offset="0.4176" style="stop-color:#E9C2AD"/>
			<stop  offset="0.5" style="stop-color:#EFC9B4"/>
			<stop  offset="0.6124" style="stop-color:#DDB59F"/>
			<stop  offset="0.8429" style="stop-color:#B1806A"/>
			<stop  offset="1" style="stop-color:#905942"/>
		</linearGradient>
		<polygon id="XMLID_52_" class="st25" points="69.4,61 74.3,56.2 79.1,61 74.3,65.9 		"/>
	</g>
	<g id="XMLID_45_">
		<defs>
			<path id="XMLID_46_" d="M55.5,57.9h1.2c1,0,1.6,0.5,1.6,1.3c0,0.8-0.6,1.3-1.6,1.3h-1.2V57.9z M54.7,57.1v6.7h0.9v-2.4h1.2
				c1.5,0,2.5-0.8,2.5-2.1c0-1.3-0.9-2.1-2.5-2.1H54.7z"/>
		</defs>
		<clipPath id="XMLID_195_">
			<use xlink:href="#XMLID_46_"  style="overflow:visible;"/>
		</clipPath>
		
			<linearGradient id="XMLID_196_" gradientUnits="userSpaceOnUse" x1="-254.4635" y1="466.9444" x2="-254.1678" y2="466.9444" gradientTransform="matrix(287.5409 -287.5409 -287.5409 -287.5409 207452.375 61196.2344)">
			<stop  offset="0" style="stop-color:#9D645A"/>
			<stop  offset="0.1441" style="stop-color:#BD8B7D"/>
			<stop  offset="0.2936" style="stop-color:#D8AD9B"/>
			<stop  offset="0.4176" style="stop-color:#E9C2AD"/>
			<stop  offset="0.5" style="stop-color:#EFC9B4"/>
			<stop  offset="0.6124" style="stop-color:#DDB59F"/>
			<stop  offset="0.8429" style="stop-color:#B1806A"/>
			<stop  offset="1" style="stop-color:#905942"/>
		</linearGradient>
		<polygon id="XMLID_49_" class="st26" points="51.3,60.4 56.9,54.8 62.5,60.4 56.9,66 		"/>
	</g>
	<g id="XMLID_42_">
		<defs>
			<path id="XMLID_43_" d="M84.1,57.1l-2,4.7c-0.1,0.2-0.3,0.8-0.3,0.8c0,0-0.2-0.6-0.3-0.8l-2-4.7h-0.9l2.8,6.6l0,0h0.8l2.8-6.6
				l0-0.1H84.1z"/>
		</defs>
		<clipPath id="XMLID_197_">
			<use xlink:href="#XMLID_43_"  style="overflow:visible;"/>
		</clipPath>
		
			<linearGradient id="XMLID_198_" gradientUnits="userSpaceOnUse" x1="-254.444" y1="467.0472" x2="-254.1576" y2="467.0472" gradientTransform="matrix(291.2288 -291.2288 -291.2288 -291.2288 210148.2344 62029.2148)">
			<stop  offset="0" style="stop-color:#9D645A"/>
			<stop  offset="0.1441" style="stop-color:#BD8B7D"/>
			<stop  offset="0.2936" style="stop-color:#D8AD9B"/>
			<stop  offset="0.4176" style="stop-color:#E9C2AD"/>
			<stop  offset="0.5" style="stop-color:#EFC9B4"/>
			<stop  offset="0.6124" style="stop-color:#DDB59F"/>
			<stop  offset="0.8429" style="stop-color:#B1806A"/>
			<stop  offset="1" style="stop-color:#905942"/>
		</linearGradient>
		<polygon id="XMLID_44_" class="st27" points="75.2,60.4 81.8,53.8 88.4,60.4 81.8,67 		"/>
	</g>
	<g id="XMLID_39_">
		<defs>
			<polygon id="XMLID_40_" points="86,58.3 86,63.7 89.7,63.7 89.7,62.9 86.8,62.9 86.8,61.3 89.1,61.3 89.1,60.5 86.8,60.5 
				86.8,59.1 89.6,59.1 89.6,58.3 			"/>
		</defs>
		<clipPath id="XMLID_199_">
			<use xlink:href="#XMLID_40_"  style="overflow:visible;"/>
		</clipPath>
		
			<linearGradient id="XMLID_200_" gradientUnits="userSpaceOnUse" x1="-254.4399" y1="467.0872" x2="-254.153" y2="467.0872" gradientTransform="matrix(287.5462 -287.5462 -287.5462 -287.5462 207505.3281 61261.8633)">
			<stop  offset="0" style="stop-color:#9D645A"/>
			<stop  offset="0.1441" style="stop-color:#BD8B7D"/>
			<stop  offset="0.2936" style="stop-color:#D8AD9B"/>
			<stop  offset="0.4176" style="stop-color:#E9C2AD"/>
			<stop  offset="0.5" style="stop-color:#EFC9B4"/>
			<stop  offset="0.6124" style="stop-color:#DDB59F"/>
			<stop  offset="0.8429" style="stop-color:#B1806A"/>
			<stop  offset="1" style="stop-color:#905942"/>
		</linearGradient>
		<polygon id="XMLID_41_" class="st28" points="83.3,61 87.8,56.5 92.4,61 87.8,65.6 		"/>
	</g>
	<g id="XMLID_36_">
		<defs>
			<polygon id="XMLID_37_" points="91.3,58.3 91.3,63.7 94.9,63.7 94.9,62.9 92.2,62.9 92.2,58.3 			"/>
		</defs>
		<clipPath id="XMLID_201_">
			<use xlink:href="#XMLID_37_"  style="overflow:visible;"/>
		</clipPath>
		
			<linearGradient id="XMLID_202_" gradientUnits="userSpaceOnUse" x1="-254.4417" y1="467.0858" x2="-254.146" y2="467.0858" gradientTransform="matrix(308.2524 -308.2524 -308.2524 -308.2524 222442.1875 65672.6406)">
			<stop  offset="0" style="stop-color:#9D645A"/>
			<stop  offset="0.1441" style="stop-color:#BD8B7D"/>
			<stop  offset="0.2936" style="stop-color:#D8AD9B"/>
			<stop  offset="0.4176" style="stop-color:#E9C2AD"/>
			<stop  offset="0.5" style="stop-color:#EFC9B4"/>
			<stop  offset="0.6124" style="stop-color:#DDB59F"/>
			<stop  offset="0.8429" style="stop-color:#B1806A"/>
			<stop  offset="1" style="stop-color:#905942"/>
		</linearGradient>
		<polygon id="XMLID_38_" class="st29" points="88.6,61 93.1,56.5 97.6,61 93.1,65.5 		"/>
	</g>
	<g id="XMLID_33_">
		<defs>
			<polygon id="XMLID_34_" points="96.2,58.3 96.2,63.7 99.8,63.7 99.8,62.9 97.1,62.9 97.1,58.3 			"/>
		</defs>
		<clipPath id="XMLID_203_">
			<use xlink:href="#XMLID_34_"  style="overflow:visible;"/>
		</clipPath>
		
			<linearGradient id="XMLID_204_" gradientUnits="userSpaceOnUse" x1="-254.4362" y1="467.1041" x2="-254.1405" y2="467.1041" gradientTransform="matrix(308.2544 -308.2544 -308.2544 -308.2544 222449.7969 65683.0469)">
			<stop  offset="0" style="stop-color:#9D645A"/>
			<stop  offset="0.1441" style="stop-color:#BD8B7D"/>
			<stop  offset="0.2936" style="stop-color:#D8AD9B"/>
			<stop  offset="0.4176" style="stop-color:#E9C2AD"/>
			<stop  offset="0.5" style="stop-color:#EFC9B4"/>
			<stop  offset="0.6124" style="stop-color:#DDB59F"/>
			<stop  offset="0.8429" style="stop-color:#B1806A"/>
			<stop  offset="1" style="stop-color:#905942"/>
		</linearGradient>
		<polygon id="XMLID_35_" class="st30" points="93.5,61 98,56.5 102.5,61 98,65.5 		"/>
	</g>
	<g id="XMLID_30_">
		<defs>
			<path id="XMLID_31_" d="M12,58.4v2.2c0,0.8,0,1.6,0,1.6h0c0,0-0.5-0.7-0.9-1.2l-1.9-2.6H8.4v5.3h0.8v-2.2c0-0.9,0-1.6,0-1.6h0
				c0,0,0.5,0.7,0.9,1.3l1.9,2.6h0.8v-5.3H12z"/>
		</defs>
		<clipPath id="XMLID_205_">
			<use xlink:href="#XMLID_31_"  style="overflow:visible;"/>
		</clipPath>
		
			<linearGradient id="XMLID_206_" gradientUnits="userSpaceOnUse" x1="-254.4882" y1="466.7642" x2="-254.1949" y2="466.7642" gradientTransform="matrix(283.9572 -283.9572 -283.9572 -283.9572 204803.5156 60350.1992)">
			<stop  offset="0" style="stop-color:#9D645A"/>
			<stop  offset="0.1441" style="stop-color:#BD8B7D"/>
			<stop  offset="0.2936" style="stop-color:#D8AD9B"/>
			<stop  offset="0.4176" style="stop-color:#E9C2AD"/>
			<stop  offset="0.5" style="stop-color:#EFC9B4"/>
			<stop  offset="0.6124" style="stop-color:#DDB59F"/>
			<stop  offset="0.8429" style="stop-color:#B1806A"/>
			<stop  offset="1" style="stop-color:#905942"/>
		</linearGradient>
		<polygon id="XMLID_32_" class="st31" points="5.8,61 10.6,56.1 15.5,61 10.6,65.9 		"/>
	</g>
	<g id="XMLID_27_">
		<defs>
			<polygon id="XMLID_28_" points="14.5,58.4 14.5,63.6 18.2,63.6 18.2,62.9 15.4,62.9 15.4,61.3 17.6,61.3 17.6,60.5 15.4,60.5 
				15.4,59.2 18.1,59.2 18.1,58.4 			"/>
		</defs>
		<clipPath id="XMLID_207_">
			<use xlink:href="#XMLID_28_"  style="overflow:visible;"/>
		</clipPath>
		
			<linearGradient id="XMLID_208_" gradientUnits="userSpaceOnUse" x1="-254.4877" y1="466.7865" x2="-254.1929" y2="466.7865" gradientTransform="matrix(287.5482 -287.5482 -287.5482 -287.5482 207402.7969 61121.7734)">
			<stop  offset="0" style="stop-color:#9D645A"/>
			<stop  offset="0.1441" style="stop-color:#BD8B7D"/>
			<stop  offset="0.2936" style="stop-color:#D8AD9B"/>
			<stop  offset="0.4176" style="stop-color:#E9C2AD"/>
			<stop  offset="0.5" style="stop-color:#EFC9B4"/>
			<stop  offset="0.6124" style="stop-color:#DDB59F"/>
			<stop  offset="0.8429" style="stop-color:#B1806A"/>
			<stop  offset="1" style="stop-color:#905942"/>
		</linearGradient>
		<polygon id="XMLID_29_" class="st32" points="11.9,61 16.3,56.5 20.8,61 16.3,65.5 		"/>
	</g>
	<g id="XMLID_24_">
		<defs>
			<polygon id="XMLID_25_" points="34.6,58.4 34.6,63.6 38.2,63.6 38.2,62.9 35.4,62.9 35.4,61.3 37.6,61.3 37.6,60.5 35.4,60.5 
				35.4,59.2 38.2,59.2 38.2,58.4 			"/>
		</defs>
		<clipPath id="XMLID_209_">
			<use xlink:href="#XMLID_25_"  style="overflow:visible;"/>
		</clipPath>
		
			<linearGradient id="XMLID_210_" gradientUnits="userSpaceOnUse" x1="-254.4761" y1="466.872" x2="-254.1813" y2="466.872" gradientTransform="matrix(287.5488 -287.5488 -287.5488 -287.5488 207432.4062 61161.9961)">
			<stop  offset="0" style="stop-color:#9D645A"/>
			<stop  offset="0.1441" style="stop-color:#BD8B7D"/>
			<stop  offset="0.2936" style="stop-color:#D8AD9B"/>
			<stop  offset="0.4176" style="stop-color:#E9C2AD"/>
			<stop  offset="0.5" style="stop-color:#EFC9B4"/>
			<stop  offset="0.6124" style="stop-color:#DDB59F"/>
			<stop  offset="0.8429" style="stop-color:#B1806A"/>
			<stop  offset="1" style="stop-color:#905942"/>
		</linearGradient>
		<polygon id="XMLID_26_" class="st33" points="31.9,61 36.4,56.5 40.9,61 36.4,65.5 		"/>
	</g>
	<g id="XMLID_19_">
		<defs>
			<path id="XMLID_20_" d="M42.1,60.1c0.1-0.3,0.2-0.7,0.2-0.7h0c0,0,0.1,0.4,0.2,0.7l0.7,1.6h-1.9L42.1,60.1z M41.9,58.4l-2.2,5.3
				h0.9l0.5-1.2h2.5l0.5,1.2h0.9l-2.2-5.3H41.9z"/>
		</defs>
		<clipPath id="XMLID_211_">
			<use xlink:href="#XMLID_20_"  style="overflow:visible;"/>
		</clipPath>
		
			<linearGradient id="XMLID_212_" gradientUnits="userSpaceOnUse" x1="-254.4738" y1="466.8994" x2="-254.1812" y2="466.8994" gradientTransform="matrix(290.7415 -290.7415 -290.7415 -290.7415 209746.0938 61851.2578)">
			<stop  offset="0" style="stop-color:#9D645A"/>
			<stop  offset="0.1441" style="stop-color:#BD8B7D"/>
			<stop  offset="0.2936" style="stop-color:#D8AD9B"/>
			<stop  offset="0.4176" style="stop-color:#E9C2AD"/>
			<stop  offset="0.5" style="stop-color:#EFC9B4"/>
			<stop  offset="0.6124" style="stop-color:#DDB59F"/>
			<stop  offset="0.8429" style="stop-color:#B1806A"/>
			<stop  offset="1" style="stop-color:#905942"/>
		</linearGradient>
		<polygon id="XMLID_23_" class="st34" points="37.1,61 42.3,55.8 47.6,61 42.3,66.3 		"/>
	</g>
	<g id="XMLID_16_">
		<defs>
			<path id="XMLID_17_" d="M50,58.4v2.2c0,0.8,0,1.6,0,1.6h0c0,0-0.5-0.7-0.9-1.2l-1.9-2.6h-0.8v5.3h0.8v-2.2c0-0.9,0-1.6,0-1.6h0
				c0,0,0.5,0.7,0.9,1.3l1.9,2.6h0.8v-5.3H50z"/>
		</defs>
		<clipPath id="XMLID_213_">
			<use xlink:href="#XMLID_17_"  style="overflow:visible;"/>
		</clipPath>
		
			<linearGradient id="XMLID_214_" gradientUnits="userSpaceOnUse" x1="-254.4664" y1="466.9255" x2="-254.1731" y2="466.9255" gradientTransform="matrix(283.9532 -283.9532 -283.9532 -283.9532 204856.7031 60422.8828)">
			<stop  offset="0" style="stop-color:#9D645A"/>
			<stop  offset="0.1441" style="stop-color:#BD8B7D"/>
			<stop  offset="0.2936" style="stop-color:#D8AD9B"/>
			<stop  offset="0.4176" style="stop-color:#E9C2AD"/>
			<stop  offset="0.5" style="stop-color:#EFC9B4"/>
			<stop  offset="0.6124" style="stop-color:#DDB59F"/>
			<stop  offset="0.8429" style="stop-color:#B1806A"/>
			<stop  offset="1" style="stop-color:#905942"/>
		</linearGradient>
		<polygon id="XMLID_18_" class="st35" points="43.7,61 48.6,56.1 53.4,61 48.6,65.9 		"/>
	</g>
	<g id="XMLID_13_">
		<defs>
			<path id="XMLID_14_" d="M27.7,61c0,1.6,1.2,2.7,2.7,2.7c1.1,0,2-0.6,2.5-1.5L32.1,62c-0.3,0.6-0.9,0.9-1.6,0.9
				c-1.1,0-1.9-0.8-1.9-1.9c0-1.1,0.8-1.9,1.9-1.9c0.6,0,1.2,0.3,1.5,0.8l0.8-0.2c-0.5-0.8-1.4-1.4-2.4-1.4
				C28.9,58.3,27.7,59.4,27.7,61"/>
		</defs>
		<clipPath id="XMLID_215_">
			<use xlink:href="#XMLID_14_"  style="overflow:visible;"/>
		</clipPath>
		
			<linearGradient id="XMLID_216_" gradientUnits="userSpaceOnUse" x1="-254.471" y1="466.8502" x2="-254.1834" y2="466.8502" gradientTransform="matrix(279.0644 -279.0644 -279.0644 -279.0644 201303.1094 59350.7695)">
			<stop  offset="0" style="stop-color:#9D645A"/>
			<stop  offset="0.1441" style="stop-color:#BD8B7D"/>
			<stop  offset="0.2936" style="stop-color:#D8AD9B"/>
			<stop  offset="0.4176" style="stop-color:#E9C2AD"/>
			<stop  offset="0.5" style="stop-color:#EFC9B4"/>
			<stop  offset="0.6124" style="stop-color:#DDB59F"/>
			<stop  offset="0.8429" style="stop-color:#B1806A"/>
			<stop  offset="1" style="stop-color:#905942"/>
		</linearGradient>
		<polygon id="XMLID_15_" class="st36" points="25,61 30.3,55.7 35.7,61 30.3,66.3 		"/>
	</g>
	<g id="XMLID_8_">
		<defs>
			<path id="XMLID_9_" d="M1,60.4c0-1.5,1-2.6,2.5-2.6c1.5,0,2.5,1.1,2.5,2.6C6.1,61.9,5,63,3.6,63S1,61.9,1,60.4 M0.2,60.4
				c0,1.9,1.5,3.4,3.4,3.4c1.9,0,3.4-1.5,3.4-3.4C7,58.5,5.5,57,3.6,57C1.6,57,0.2,58.5,0.2,60.4"/>
		</defs>
		<clipPath id="XMLID_217_">
			<use xlink:href="#XMLID_9_"  style="overflow:visible;"/>
		</clipPath>
		
			<linearGradient id="XMLID_218_" gradientUnits="userSpaceOnUse" x1="-254.4856" y1="466.7306" x2="-254.1916" y2="466.7306" gradientTransform="matrix(279.1917 -279.1917 -279.1917 -279.1917 201353.2969 59325.2852)">
			<stop  offset="0" style="stop-color:#9D645A"/>
			<stop  offset="0.1441" style="stop-color:#BD8B7D"/>
			<stop  offset="0.2936" style="stop-color:#D8AD9B"/>
			<stop  offset="0.4176" style="stop-color:#E9C2AD"/>
			<stop  offset="0.5" style="stop-color:#EFC9B4"/>
			<stop  offset="0.6124" style="stop-color:#DDB59F"/>
			<stop  offset="0.8429" style="stop-color:#B1806A"/>
			<stop  offset="1" style="stop-color:#905942"/>
		</linearGradient>
		<polygon id="XMLID_12_" class="st37" points="-3.3,60.4 3.6,53.6 10.4,60.4 3.6,67.2 		"/>
	</g>
	<g id="XMLID_3_">
		<defs>
			<path id="XMLID_4_" d="M20.4,60.4c0-1.5,1-2.6,2.5-2.6c1.5,0,2.5,1.1,2.5,2.6c0,1.5-1.1,2.6-2.5,2.6C21.5,63,20.4,61.9,20.4,60.4
				 M19.6,60.4c0,1.9,1.5,3.4,3.4,3.4c1.9,0,3.4-1.5,3.4-3.4c0-1.9-1.5-3.4-3.4-3.4C21,57,19.6,58.5,19.6,60.4"/>
		</defs>
		<clipPath id="XMLID_219_">
			<use xlink:href="#XMLID_4_"  style="overflow:visible;"/>
		</clipPath>
		
			<linearGradient id="XMLID_220_" gradientUnits="userSpaceOnUse" x1="-254.473" y1="466.8167" x2="-254.1888" y2="466.8167" gradientTransform="matrix(279.1844 -279.1844 -279.1844 -279.1844 201377.5 59361.7461)">
			<stop  offset="0" style="stop-color:#9D645A"/>
			<stop  offset="0.1441" style="stop-color:#BD8B7D"/>
			<stop  offset="0.2936" style="stop-color:#D8AD9B"/>
			<stop  offset="0.4176" style="stop-color:#E9C2AD"/>
			<stop  offset="0.5" style="stop-color:#EFC9B4"/>
			<stop  offset="0.6124" style="stop-color:#DDB59F"/>
			<stop  offset="0.8429" style="stop-color:#B1806A"/>
			<stop  offset="1" style="stop-color:#905942"/>
		</linearGradient>
		<polygon id="XMLID_7_" class="st38" points="16.2,60.4 23,53.6 29.8,60.4 23,67.2 		"/>
	</g>
</g>
</svg>
