<?xml version="1.0" encoding="utf-8"?>
<!-- Generator: Adobe Illustrator 19.0.0, SVG Export Plug-In . SVG Version: 6.00 Build 0)  -->
<svg version="1.1" id="Layer_1" xmlns="http://www.w3.org/2000/svg" xmlns:xlink="http://www.w3.org/1999/xlink" x="0px" y="0px"
	 viewBox="0 0 57 72" style="enable-background:new 0 0 57 72;" xml:space="preserve">
<style type="text/css">
	.st0{fill:#2EABD0;}
	.st1{fill:#54575A;}
</style>
<g id="XMLID_9_">
	<path id="XMLID_10_" class="st0" d="M56.1,38l-20.8-36c-0.7-1.1-1.9-1.8-3.2-1.8h-7.2c-1.3,0-2.5,0.7-3.2,1.8L0.9,38
		c-0.7,1.1-0.7,2.5,0,3.7l3.6,6.3c0.7,1.1,1.9,1.8,3.2,1.8h41.6c1.3,0,2.5-0.7,3.2-1.8l3.6-6.3C56.8,40.5,56.8,39.1,56.1,38
		 M38.4,41.4c-3.1,1-6.5,1.5-9.9,1.5c-3.5,0-6.8-0.5-9.9-1.5c-3.7-1.2-5.9-4.9-5.1-8.6c1.4-6.8,5-12.9,10-17.5
		c2.9-2.7,7.3-2.7,10.2,0c5,4.6,8.5,10.6,10,17.5C44.4,36.6,42.1,40.3,38.4,41.4"/>
</g>
<g id="XMLID_7_">
	<g id="XMLID_18_">
		<path id="XMLID_4_" class="st1" d="M39.8,62.1l-4.9,9.6c-0.1,0.2-0.2,0.3-0.4,0.3h-1.6c-0.2,0-0.3-0.1-0.4-0.3l-4.9-9.6
			c-0.1-0.2-0.1-0.4,0-0.5l0.5-0.9c0.1-0.2,0.3-0.3,0.5-0.3H29c0.1,0,0.2,0.1,0.3,0.2l4.1,8.2c0.1,0.2,0.3,0.2,0.4,0l4.1-8.2
			c0.1-0.1,0.2-0.2,0.3-0.2h0.5c0.2,0,0.4,0.1,0.5,0.3l0.5,0.9C39.8,61.8,39.8,62,39.8,62.1"/>
	</g>
	<g id="XMLID_16_">
		<path id="XMLID_3_" class="st1" d="M15.5,62.1l-4.9,9.6c-0.1,0.2-0.2,0.3-0.4,0.3H8.6c-0.2,0-0.3-0.1-0.4-0.3l-4.9-9.6
			c-0.1-0.2-0.1-0.4,0-0.5l0.5-0.9c0.1-0.2,0.3-0.3,0.5-0.3h0.5c0.1,0,0.2,0.1,0.3,0.2l4.1,8.2c0.1,0.2,0.3,0.2,0.4,0l4.1-8.2
			c0.1-0.1,0.2-0.2,0.3-0.2h0.5c0.2,0,0.4,0.1,0.5,0.3l0.5,0.9C15.6,61.8,15.6,62,15.5,62.1"/>
	</g>
	<g id="XMLID_14_">
		<path id="XMLID_2_" class="st1" d="M22.5,60.6c-0.1-0.1-0.2-0.1-0.3-0.1h-0.7c-0.2,0-0.4,0.1-0.5,0.3l-0.5,0.9
			c0,0.1-0.1,0.2-0.1,0.3v9.7c0,0.3,0.2,0.5,0.5,0.5h1.4c0.3,0,0.5-0.2,0.5-0.5V60.9C22.6,60.8,22.6,60.6,22.5,60.6"/>
	</g>
	<g id="XMLID_12_">
		<path id="XMLID_1_" class="st1" d="M45.2,60.7c0.1-0.2,0.3-0.3,0.5-0.3h7c0.2,0,0.4,0.1,0.5,0.3l0.5,0.8c0.1,0.1,0.1,0.3,0.1,0.4
			v0.2c0,0.2-0.1,0.3-0.3,0.3h-6.4c-0.1,0-0.2,0.1-0.2,0.2v2.2c0,0.1,0.1,0.2,0.2,0.2h4.3c0.2,0,0.4,0.2,0.4,0.4v1.3
			c0,0.2-0.2,0.4-0.4,0.4h-4.3c-0.1,0-0.2,0.1-0.2,0.2v2.3c0,0.1,0.1,0.2,0.2,0.2h6.4c0.2,0,0.3,0.1,0.3,0.3v0.2
			c0,0.1,0,0.3-0.1,0.4l-0.5,0.9c-0.1,0.2-0.3,0.3-0.5,0.3h-7c-0.2,0-0.4-0.1-0.5-0.3l-0.5-0.8c-0.1-0.1-0.1-0.3-0.1-0.4l0-8.5
			c0-0.1,0-0.3,0.1-0.4L45.2,60.7z"/>
	</g>
</g>
</svg>
