<?xml version="1.0" encoding="utf-8"?>
<!-- Generator: Adobe Illustrator 19.0.0, SVG Export Plug-In . SVG Version: 6.00 Build 0)  -->
<svg version="1.1" id="Capa_1" xmlns="http://www.w3.org/2000/svg" xmlns:xlink="http://www.w3.org/1999/xlink" x="0px" y="0px"
	 viewBox="231 -232 512 512" style="enable-background:new 231 -232 512 512;" xml:space="preserve">
<style type="text/css">
	.st0{fill:#FFFFFF;}
</style>
<g>
	<path class="st0" d="M487-221.8c33.2,0,65.4,6.5,95.7,19.3c29.3,12.4,55.5,30.1,78.1,52.7c22.6,22.6,40.3,48.9,52.7,78.1
		c12.8,30.3,19.3,62.5,19.3,95.7s-6.5,65.4-19.3,95.7c-12.4,29.3-30.1,55.5-52.7,78.1c-22.6,22.6-48.9,40.3-78.1,52.7
		c-30.3,12.8-62.5,19.3-95.7,19.3s-65.4-6.5-95.7-19.3c-29.3-12.4-55.5-30.1-78.1-52.7c-22.6-22.6-40.3-48.9-52.7-78.1
		c-12.8-30.3-19.3-62.5-19.3-95.7s6.5-65.4,19.3-95.7c12.4-29.3,30.1-55.5,52.7-78.1c22.6-22.6,48.9-40.3,78.1-52.7
		C421.6-215.3,453.8-221.8,487-221.8 M487-232c-141.4,0-256,114.6-256,256s114.6,256,256,256S743,165.4,743,24S628.4-232,487-232
		L487-232z"/>
</g>
<g>
	<path class="st0" d="M452.9,81.8c-0.5,0-0.9-0.1-1.4-0.3c-0.9-0.5-1.6-1.5-1.6-2.6V-35.9c0-1.1,0.6-2.1,1.5-2.6
		c0.4-0.2,0.9-0.3,1.4-0.3c0.6,0,1.2,0.2,1.7,0.5l84.2,57.4c0.8,0.5,1.3,1.4,1.3,2.4c0,0.9-0.5,1.9-1.3,2.4
		C538.7,23.9,453.5,81.8,452.9,81.8z"/>
</g>
</svg>
