<?xml version="1.0" encoding="utf-8"?>
<!-- Generator: Adobe Illustrator 19.0.0, SVG Export Plug-In . SVG Version: 6.00 Build 0)  -->
<svg version="1.1" id="Layer_1" xmlns="http://www.w3.org/2000/svg" xmlns:xlink="http://www.w3.org/1999/xlink" x="0px" y="0px"
	 viewBox="0 0 49 49" style="enable-background:new 0 0 49 49;" xml:space="preserve">
<style type="text/css">
	.st0{fill:#FFFFFF;}
</style>
<g>
	<path id="XMLID_8_" class="st0" d="M20,34.5L20,34.5c-0.7,0-1.2-0.4-1.2-0.9V15.4c0-0.5,0.5-0.9,1.2-0.9l0,0c0.7,0,1.2,0.4,1.2,0.9
		v18.3C21.2,34.1,20.7,34.5,20,34.5z"/>
	<path id="XMLID_9_" class="st0" d="M29,34.5L29,34.5c-0.7,0-1.2-0.4-1.2-0.9V15.4c0-0.5,0.5-0.9,1.2-0.9l0,0c0.7,0,1.2,0.4,1.2,0.9
		v18.3C30.2,34.1,29.7,34.5,29,34.5z"/>
</g>
</svg>
