<svg id="Layer_1" xmlns="http://www.w3.org/2000/svg" viewBox="0 0 19 30"><style>.st0{fill:#FFFFFF;} .wheel { animation: translateUpDown 2s ease-out infinite; } @keyframes translateUpDown { 0% { transform: translateY(0px) } 25% { transform: translateY(1px); } 50% { transform: translateY(0px); } 75% { transform: translateY(-1px); } 100% { transform: translateY(0) } }</style><path id="XMLID_5_" class="st0 wheel" d="M9.5 13.8c.4 0 .8-.3.8-.8v-3c0-.4-.3-.8-.8-.8-.4 0-.8.3-.8.8v3c0 .5.4.8.8.8z"/><path id="XMLID_11_" class="st0" d="M9.5 29.7c-5.2 0-9.4-4.4-9.4-9.9v-9.7C.1 4.7 4.3.2 9.5.2s9.4 4.4 9.4 9.9v9.7c0 5.5-4.2 9.9-9.4 9.9zm0-27.9c-4.4 0-8 3.8-8 8.4v9.7c0 4.6 3.6 8.4 8 8.4s8-3.8 8-8.4v-9.7c0-4.7-3.6-8.4-8-8.4z"/></svg>
