<?xml version="1.0" encoding="utf-8"?>
<!-- Generator: Adobe Illustrator 19.0.0, SVG Export Plug-In . SVG Version: 6.00 Build 0)  -->
<svg version="1.1" id="Layer_1" xmlns="http://www.w3.org/2000/svg" xmlns:xlink="http://www.w3.org/1999/xlink" x="0px" y="0px"
	 viewBox="0 0 145 28" style="enable-background:new 0 0 145 28;" xml:space="preserve">
<style type="text/css">
	.st0{fill:#FFFFFF;}
</style>
<g id="XMLID_7_">
	<g id="XMLID_18_">
		<path id="XMLID_4_" class="st0" d="M130.8,9.7l-5,9.8c-0.1,0.2-0.2,0.3-0.4,0.3h-1.6c-0.2,0-0.3-0.1-0.4-0.3l-5-9.8
			c-0.1-0.2-0.1-0.4,0-0.5l0.5-0.9c0.1-0.2,0.3-0.3,0.5-0.3h0.4c0.1,0,0.2,0.1,0.3,0.2l4.2,8.3c0.1,0.2,0.3,0.2,0.4,0l4.2-8.3
			c0.1-0.1,0.2-0.2,0.3-0.2h0.5c0.2,0,0.4,0.1,0.5,0.3l0.5,0.9C130.8,9.4,130.8,9.6,130.8,9.7"/>
	</g>
	<g id="XMLID_16_">
		<path id="XMLID_3_" class="st0" d="M106.1,9.7l-5,9.8c-0.1,0.2-0.2,0.3-0.4,0.3H99c-0.2,0-0.3-0.1-0.4-0.3l-5-9.8
			c-0.1-0.2-0.1-0.4,0-0.5l0.5-0.9C94.3,8.1,94.5,8,94.7,8h0.5c0.1,0,0.2,0.1,0.3,0.2l4.2,8.3c0.1,0.2,0.3,0.2,0.4,0l4.2-8.3
			c0.1-0.1,0.2-0.2,0.3-0.2h0.5c0.2,0,0.4,0.1,0.5,0.3l0.5,0.9C106.2,9.4,106.2,9.6,106.1,9.7"/>
	</g>
	<g id="XMLID_14_">
		<path id="XMLID_2_" class="st0" d="M113.2,8.2c-0.1-0.1-0.2-0.1-0.3-0.1h-0.7c-0.2,0-0.4,0.1-0.5,0.3l-0.5,0.9
			c0,0.1-0.1,0.2-0.1,0.3v9.9c0,0.3,0.2,0.5,0.5,0.5h1.4c0.3,0,0.5-0.2,0.5-0.5v-11C113.3,8.4,113.3,8.2,113.2,8.2"/>
	</g>
	<g id="XMLID_12_">
		<path id="XMLID_1_" class="st0" d="M136.3,8.3c0.1-0.2,0.3-0.3,0.5-0.3h7.1c0.2,0,0.4,0.1,0.5,0.3l0.5,0.8
			c0.1,0.1,0.1,0.3,0.1,0.4v0.2c0,0.2-0.1,0.3-0.3,0.3h-6.5c-0.1,0-0.2,0.1-0.2,0.2v2.2c0,0.1,0.1,0.2,0.2,0.2h4.4
			c0.2,0,0.4,0.2,0.4,0.4v1.3c0,0.2-0.2,0.4-0.4,0.4h-4.4c-0.1,0-0.2,0.1-0.2,0.2v2.3c0,0.1,0.1,0.2,0.2,0.2h6.5
			c0.2,0,0.3,0.1,0.3,0.3v0.2c0,0.1,0,0.3-0.1,0.4l-0.5,0.9c-0.1,0.2-0.3,0.3-0.5,0.3h-7.1c-0.2,0-0.4-0.1-0.5-0.3l-0.5-0.8
			c-0.1-0.1-0.1-0.3-0.1-0.4V9.5c0-0.1,0-0.3,0.1-0.4L136.3,8.3z"/>
	</g>
</g>
<g id="XMLID_9_">
	<path id="XMLID_10_" class="st0" d="M86.1,21.3L74.3,1c-0.4-0.6-1.1-1-1.8-1h-4.1c-0.7,0-1.4,0.4-1.8,1L54.9,21.3
		c-0.4,0.6-0.4,1.4,0,2.1l2,3.6c0.4,0.6,1.1,1,1.8,1h23.5c0.7,0,1.4-0.4,1.8-1l2-3.6C86.5,22.8,86.5,22,86.1,21.3 M76.1,23.3
		c-1.8,0.6-3.7,0.8-5.6,0.8c-2,0-3.8-0.3-5.6-0.8c-2.1-0.7-3.3-2.8-2.9-4.9c0.8-3.8,2.8-7.3,5.6-9.9c1.6-1.5,4.1-1.5,5.8,0
		c2.8,2.6,4.8,6,5.6,9.9C79.5,20.5,78.2,22.6,76.1,23.3"/>
</g>
<g id="XMLID_26_">
	<path id="path38" class="st0" d="M39.6,19c-2.1,0-4.6,0-5,0c-1.3,0-2.1-0.8-2.5-2.1c0-0.8,0-1.2,0-2.1c0-1.2,1.2-2.5,2.1-2.5
		c0.4,0,1.2,0,3.3,0h5.4v-2.1c0,0-4.2,0-5.4,0c-1.7,0-2.5,0-3.3,0c-1.3,0-2.1,0.4-2.9,1.2c-0.8,0.8-1.2,2.1-1.2,3.3
		c0,0.8,0,1.7,0,2.1c0,1.2,0.4,2.5,1.2,3.3c0.8,0.8,2.1,1.2,2.9,1.2c0.8,0,8.7,0,8.7,0V19C42.9,19,40.8,19,39.6,19"/>
	<path id="path40" class="st0" d="M15.4,10.2v2.5h5.4v8.7h2.1v-8.7h5.4v-2.5C27.9,10.2,15.4,10.2,15.4,10.2z"/>
	<path id="path50" class="st0" d="M12.9,14.8c0-1.2-0.4-2.5-1.2-3.3c-0.8-0.8-2.1-1.3-2.9-1.3c-0.8,0-3.8,0-4.2,0
		c-0.8,0-1.7,0.4-2.1,0.4l0,0V6.5H0v15h2.1c0,0,0-6.2,0-6.7c0-1.2,0.8-2.1,2.1-2.1c0.8,0,3.3,0,4.2,0c1.2,0,2.1,0.8,2.1,2.1
		c0,0.4,0,6.7,0,6.7h2.1C12.9,21.5,12.9,15.2,12.9,14.8"/>
</g>
</svg>
