<?xml version="1.0" encoding="utf-8"?>
<!-- Generator: Adobe Illustrator 19.0.0, SVG Export Plug-In . SVG Version: 6.00 Build 0)  -->
<svg version="1.1"
	 id="svg2" xmlns:dc="http://purl.org/dc/elements/1.1/" xmlns:inkscape="http://www.inkscape.org/namespaces/inkscape" xmlns:sodipodi="http://sodipodi.sourceforge.net/DTD/sodipodi-0.dtd" xmlns:svg="http://www.w3.org/2000/svg" xmlns:cc="http://creativecommons.org/ns#" xmlns:rdf="http://www.w3.org/1999/02/22-rdf-syntax-ns#" sodipodi:docname="HTC.svg" inkscape:version="0.48.2 r9819"
	 xmlns="http://www.w3.org/2000/svg" xmlns:xlink="http://www.w3.org/1999/xlink" x="0px" y="0px" viewBox="73 -4.7 246.2 81.7"
	 style="enable-background:new 73 -4.7 246.2 81.7;" xml:space="preserve">
<style type="text/css">
	.st0{fill:#8CC751;}
</style>
<sodipodi:namedview  fit-margin-left="0" fit-margin-top="0" inkscape:cy="-0.17923649" inkscape:cx="126.34785" inkscape:zoom="1.3485714" showgrid="false" guidetolerance="10" gridtolerance="10" pagecolor="#ffffff" borderopacity="1" bordercolor="#666666" objecttolerance="10" id="namedview20" fit-margin-bottom="0" inkscape:window-height="837" inkscape:window-x="-8" inkscape:pageopacity="0" inkscape:window-width="1600" inkscape:pageshadow="2" fit-margin-right="0" inkscape:current-layer="svg2" inkscape:window-y="-8" inkscape:window-maximized="1">
	</sodipodi:namedview>
<defs>
	
	
		<inkscape:perspective  inkscape:vp_z="300 : 87.5 : 1" inkscape:vp_y="0 : 1000 : 0" inkscape:vp_x="0 : 87.5 : 1" sodipodi:type="inkscape:persp3d" id="perspective24" inkscape:persp3d-origin="150 : 58.333333 : 1">
		</inkscape:perspective>
</defs>
<path id="path38" inkscape:connector-curvature="0" class="st0" d="M298.7,64.4c-13,0.1-25.4,0.2-28.8-0.1
	c-7-0.6-11.6-5.2-12.2-11.9c-0.4-4.4-0.4-8,0-11.5c0.6-6.5,6.1-12.7,12.2-13c2.2-0.1,8-0.1,18.6-0.1l30.7,0.1V15.1
	c0,0-24.5,0-31.8-0.1c-9.9,0-14.8-0.1-18,0.1c-6.9,0.3-12.7,2.7-17.2,7.3c-4.3,4.3-6.8,11.2-7.2,18.2c-0.2,3.8-0.3,8.7,0,11.6
	c0.7,7.5,3.1,13.4,7.2,17.5c4.3,4.4,11,7.2,17.2,7.3c5.2,0.1,49.8,0,49.8,0V64.2C319.2,64.2,305.7,64.3,298.7,64.4"/>
<path id="path40" inkscape:connector-curvature="0" class="st0" d="M160.1,15.8v12.7h30.3v48.2h12.8V28.5h30.3V15.8
	C233.5,15.8,160.1,15.8,160.1,15.8z"/>
<path id="path50" inkscape:connector-curvature="0" class="st0" d="M146.8,39.9c-0.1-6.9-2.5-12.7-7.2-17.5c-4.9-5-12.4-7-17.2-7.3
	c-4.2-0.2-21-0.2-24.9,0c-5.5,0.2-9.6,1.9-11.6,3.4c0,0,0,0,0,0V-4.7H73V77h12.8c0,0-0.3-33.4,0-37.1c0.5-6.5,5.4-11.6,11.7-12.1
	c5-0.4,20.1-0.3,24.8,0c6.5,0.4,11.3,5.5,11.7,12.4c0.1,2.5,0,36.8,0,36.8h12.8C146.8,77,146.8,42.8,146.8,39.9"/>
</svg>
