<?xml version="1.0" encoding="utf-8"?>
<!-- Generator: Adobe Illustrator 19.0.0, SVG Export Plug-In . SVG Version: 6.00 Build 0)  -->
<svg version="1.1" id="Layer_1" xmlns="http://www.w3.org/2000/svg" xmlns:xlink="http://www.w3.org/1999/xlink" x="0px" y="0px"
	 viewBox="0 0 57 72" style="enable-background:new 0 0 57 72;" xml:space="preserve">
<style type="text/css">
	.st0{fill:#231F20;}
	.st1{fill:#FFFEFD;}
</style>
<g id="XMLID_8_">
	<path id="XMLID_12_" class="st0" d="M6.8,72.1c-1.6,0-2.9-0.3-3.9-1.4l1.3-1.3C5,70,5.9,70.2,6.9,70.2c1.2,0,1.9-0.5,1.9-1.3
		c0-0.4-0.1-0.7-0.3-0.9c-0.2-0.2-0.5-0.3-0.9-0.4l-1.3-0.2c-0.9-0.1-1.6-0.4-2.1-0.9c-0.5-0.5-0.8-1.2-0.8-2.1
		c0-1.9,1.4-3.2,3.7-3.2c1.5,0,2.5,0.4,3.5,1.2l-1.3,1.3C8.5,63.1,7.7,63,7,63c-1.1,0-1.7,0.6-1.7,1.4c0,0.3,0.1,0.6,0.3,0.8
		c0.2,0.2,0.6,0.4,1,0.4l1.3,0.2c1,0.1,1.6,0.4,2,0.8c0.6,0.5,0.8,1.3,0.8,2.3C10.8,70.9,9.1,72.1,6.8,72.1z"/>
	<path id="XMLID_14_" class="st0" d="M17.6,63.2V72h-2.1v-8.8h-2.8v-1.9h7.7v1.9H17.6z"/>
	<path id="XMLID_16_" class="st0" d="M22.8,72V61.3h7v1.9h-4.9v2.5h4.2v1.9h-4.2v2.6h4.9V72H22.8z"/>
	<path id="XMLID_18_" class="st0" d="M38.6,72L38,70.1h-3.8L33.6,72h-2.2l3.9-10.7h1.6L40.8,72H38.6z M36.1,64.5l-1.3,3.9h2.7
		L36.1,64.5z"/>
	<path id="XMLID_22_" class="st0" d="M50.4,72v-6.2l-2,4H47l-2.1-4V72h-2.1V61.3h2.1l2.8,5.8l2.8-5.8h2.1V72H50.4z"/>
</g>
<image style="display:none;overflow:visible;opacity:0.28;" width="62" height="73" id="XMLID_2_" xlink:href="steam.png"  transform="matrix(0.9771 0 0 0.9771 -1.7892 0.3369)">
</image>
<path id="XMLID_10_" class="st0" d="M4.7,32c3.1,10.2,12.6,17.7,23.8,17.7c13.7,0,24.9-11.1,24.9-24.9C53.3,11.1,42.2,0,28.5,0
	C15.3,0,4.5,10.2,3.7,23.2C5.3,25.9,5.9,27.6,4.7,32L4.7,32z"/>
<path id="XMLID_11_" class="st1" d="M27.2,18.5c0,0,0,0.1,0,0.1l-6.1,8.8c-1,0-2,0.1-2.9,0.5c-0.4,0.2-0.8,0.4-1.2,0.6L3.7,23.1
	c0,0-0.3,5.1,1,8.9l9.4,3.9c0.5,2.1,1.9,4,4.1,4.9c3.5,1.5,7.6-0.2,9-3.7c0.4-0.9,0.6-1.9,0.5-2.8l8.7-6.2c0.1,0,0.1,0,0.2,0
	c5.2,0,9.4-4.2,9.4-9.5c0-5.2-4.2-9.5-9.4-9.5C31.4,9.1,27.2,13.3,27.2,18.5z M25.7,36.4c-1.1,2.7-4.2,4-7,2.9
	c-1.2-0.5-2.2-1.5-2.7-2.6l3.1,1.3c2,0.8,4.3-0.1,5.1-2.1c0.8-2-0.1-4.3-2.1-5.1l-3.2-1.3c1.2-0.5,2.6-0.5,3.9,0.1
	c1.3,0.5,2.3,1.6,2.9,2.9C26.3,33.7,26.3,35.1,25.7,36.4 M36.6,24.8c-3.5,0-6.3-2.8-6.3-6.3c0-3.5,2.8-6.3,6.3-6.3
	c3.5,0,6.3,2.8,6.3,6.3C42.9,22,40.1,24.8,36.6,24.8 M31.9,18.5c0-2.6,2.1-4.7,4.7-4.7c2.6,0,4.7,2.1,4.7,4.7c0,2.6-2.1,4.7-4.7,4.7
	C34,23.2,31.9,21.1,31.9,18.5z"/>
</svg>
