<?xml version="1.0" encoding="utf-8"?>
<!-- Generator: Adobe Illustrator 19.0.0, SVG Export Plug-In . SVG Version: 6.00 Build 0)  -->
<svg version="1.1" id="Capa_1" xmlns="http://www.w3.org/2000/svg" xmlns:xlink="http://www.w3.org/1999/xlink" x="0px" y="0px"
	 viewBox="244 -244 512 512" style="enable-background:new 244 -244 512 512;" xml:space="preserve">
<style type="text/css">
	.st0{fill:#2B2B2B;}
</style>
<g>
	<g id="explore">
		<g>
			<path class="st0" d="M500,254c-64.4,0-125.1-25.2-170.9-71.1C283.2,137.1,258,76.4,258,12c0-64.4,25.2-125.1,71.1-170.9
				S435.6-230,500-230c64.4,0,125.1,25.2,170.9,71.1C716.8-113.1,742-52.4,742,12c0,64.4-25.2,125.1-71.1,170.9
				C625.1,228.8,564.4,254,500,254z M360.1,151.9l191.2-88.6l88.6-191.2L448.7-39.3L360.1,151.9z M500,40.4
				c-15.4,0-28.4-13-28.4-28.4s13-28.4,28.4-28.4s28.4,13,28.4,28.4S515.4,40.4,500,40.4z"/>
			<path class="st0" d="M500-228c132,0,240,108,240,240S632,252,500,252S260,144,260,12S368-228,500-228 M356,156l196.8-91.2
				L644-132L447.2-40.8L356,156 M500-14.4c14.4,0,26.4,12,26.4,26.4s-12,26.4-26.4,26.4c-14.4,0-26.4-12-26.4-26.4
				S485.6-14.4,500-14.4 M500-232c-32.8,0-64.7,6.5-94.8,19.3c-29,12.3-55.1,30-77.6,52.4s-40.1,48.5-52.4,77.6
				C262.5-52.7,256-20.8,256,12s6.5,64.7,19.3,94.8c12.3,29,30,55.1,52.4,77.6s48.5,40.1,77.6,52.4c30.1,12.8,62,19.3,94.8,19.3
				c32.8,0,64.7-6.5,94.8-19.3c29-12.3,55.1-30,77.6-52.4s40.1-48.5,52.4-77.6C737.5,76.7,744,44.8,744,12s-6.5-64.7-19.3-94.8
				c-12.3-29-30-55.1-52.4-77.6s-48.5-40.1-77.6-52.4C564.7-225.5,532.8-232,500-232L500-232z M450.2-37.8l185.6-86l-86,185.6
				l-185.6,86L450.2-37.8L450.2-37.8z M500-18.4c-8,0-15.6,3.2-21.4,9c-5.8,5.8-9,13.4-9,21.4s3.2,15.6,9,21.4
				c5.8,5.8,13.4,9,21.4,9s15.6-3.2,21.4-9c5.8-5.8,9-13.4,9-21.4s-3.2-15.6-9-21.4C515.6-15.2,508-18.4,500-18.4L500-18.4z"/>
		</g>
	</g>
</g>
</svg>
