<?xml version="1.0" encoding="utf-8"?>
<!-- Generator: Adobe Illustrator 19.0.0, SVG Export Plug-In . SVG Version: 6.00 Build 0)  -->
<svg version="1.1" xmlns="http://www.w3.org/2000/svg" xmlns:xlink="http://www.w3.org/1999/xlink" x="0px" y="0px"
	 viewBox="0 0 50 50" style="enable-background:new 0 0 50 50;" xml:space="preserve">
<style type="text/css">
	.st0{clip-path:url(#XMLID_4_);fill-rule:evenodd;clip-rule:evenodd;fill:url(#XMLID_5_);}
	.st1{clip-path:url(#XMLID_4_);fill:url(#XMLID_7_);}
</style>
<g id="Layer_1">
</g>
<g id="Layer_2">
	<g id="XMLID_2_">
		<defs>
			<path id="XMLID_63_" d="M34.1,20.7c-0.1-1.2-0.6-2.3-1.5-3.1c-0.9-0.9-2.1-1.3-3.4-1.4c-2.2-0.1-7.3-0.2-9.1,0.1
				c-2.1,0.3-3.4,1.5-4,3.6c-0.4,1.6-0.3,8.8-0.1,10.3c0.3,2.1,1.6,3.5,3.7,4c1.4,0.4,8.6,0.3,10.2,0.1c2.1-0.3,3.5-1.6,4-3.7
				C34.4,29,34.3,22.1,34.1,20.7z M32.5,29.9c-0.2,1.6-1.3,2.6-2.9,2.8c-1.5,0.2-8.1,0.3-9.5-0.1c-1.3-0.4-2.1-1.3-2.3-2.6
				c-0.2-1.3-0.3-7.6,0-9.3c0.2-1.6,1.3-2.6,2.9-2.8c1.6-0.2,7.5-0.2,9,0c1.6,0.2,2.6,1.3,2.8,2.9C32.7,22.4,32.7,28.2,32.5,29.9z
				 M25.1,20.6c-2.6,0-4.7,2.1-4.7,4.7c0,2.6,2.1,4.7,4.7,4.7c2.6,0,4.7-2.1,4.7-4.7C29.8,22.7,27.7,20.6,25.1,20.6z M25.1,28.3
				c-1.7,0-3-1.4-3-3.1c0-1.7,1.4-3,3.1-3c1.7,0,3,1.4,3,3.1C28.2,27,26.8,28.3,25.1,28.3z M31.1,20.4c0,0.6-0.5,1.1-1.1,1.1
				c-0.6,0-1.1-0.5-1.1-1.1c0-0.6,0.5-1.1,1.1-1.1C30.6,19.3,31.1,19.8,31.1,20.4z"/>
		</defs>
		<clipPath id="XMLID_4_">
			<use xlink:href="#XMLID_63_"  style="overflow:visible;"/>
		</clipPath>
		<linearGradient id="XMLID_5_" gradientUnits="userSpaceOnUse" x1="2.3251" y1="35.4387" x2="47.6749" y2="14.5607">
			<stop  offset="0" style="stop-color:#EBEBEB;stop-opacity:0.1"/>
			<stop  offset="1" style="stop-color:#FFFFFF;stop-opacity:0"/>
		</linearGradient>
		<circle id="XMLID_6_" class="st0" cx="25" cy="25" r="25"/>
		
			<radialGradient id="XMLID_7_" cx="-201.1316" cy="48.3402" r="243.8358" gradientTransform="matrix(0.1 0 0 0.1 36.6504 30.6)" gradientUnits="userSpaceOnUse">
			<stop  offset="0" style="stop-color:#FCCC63"/>
			<stop  offset="8.107393e-02" style="stop-color:#FBB655"/>
			<stop  offset="0.1346" style="stop-color:#FBAD50"/>
			<stop  offset="0.3169" style="stop-color:#E95950"/>
			<stop  offset="0.418" style="stop-color:#DC515D"/>
			<stop  offset="0.5045" style="stop-color:#CD486B"/>
			<stop  offset="0.6606" style="stop-color:#BC2A8D"/>
			<stop  offset="0.7451" style="stop-color:#A631A0"/>
			<stop  offset="0.8706" style="stop-color:#8A3AB9"/>
			<stop  offset="1" style="stop-color:#4C68D7"/>
		</radialGradient>
		<rect id="XMLID_1_" x="15.7" y="15.7" class="st1" width="18.5" height="18.5"/>
	</g>
</g>
</svg>
