<?xml version="1.0" encoding="utf-8"?>
<!-- Generator: Adobe Illustrator 19.0.0, SVG Export Plug-In . SVG Version: 6.00 Build 0)  -->
<svg version="1.1" id="Layer_1" xmlns="http://www.w3.org/2000/svg" xmlns:xlink="http://www.w3.org/1999/xlink" x="0px" y="0px"
	 viewBox="0 0 50 50" style="enable-background:new 0 0 50 50;" xml:space="preserve">
<style type="text/css">
	.st0{fill-rule:evenodd;clip-rule:evenodd;fill:#0084B4;}
	.st1{fill-rule:evenodd;clip-rule:evenodd;fill:url(#XMLID_3_);}
</style>
<g id="XMLID_1_">
	<path id="XMLID_13_" class="st0" d="M22,30.2c-2.1-0.1-3.4-1.6-3.7-2.8c0.6,0.1,1.2,0.1,1.7-0.1c0,0,0,0,0.1,0
		c-1.1-0.3-2-0.9-2.6-1.8c-0.4-0.6-0.6-1.4-0.6-2.1c0.6,0.3,1.2,0.5,1.8,0.5c-0.9-0.6-1.4-1.4-1.7-2.4c-0.2-1-0.1-2,0.4-2.9
		c2.2,2.6,4.9,4,8.3,4.2c0-0.2,0-0.3-0.1-0.4c-0.1-0.9,0.1-1.8,0.6-2.6c0.6-1,1.6-1.6,2.7-1.8c1.4-0.2,2.5,0.2,3.5,1.1
		c0.1,0.1,0.1,0.1,0.2,0.1c0.8-0.2,1.6-0.5,2.3-0.9c0,0,0,0,0.1,0c0,0,0,0,0,0c-0.3,0.9-0.9,1.7-1.7,2.2c0.8-0.1,1.5-0.3,2.2-0.6
		c0,0,0,0,0,0c-0.2,0.2-0.3,0.4-0.5,0.6c-0.4,0.5-0.9,1-1.5,1.4c0,0-0.1,0.1-0.1,0.1c0,0.6,0,1.2-0.1,1.8c-0.2,1.3-0.5,2.4-1,3.6
		c-0.6,1.2-1.3,2.2-2.2,3.2c-1.5,1.6-3.4,2.6-5.5,3.1c-0.7,0.2-1.5,0.2-2.2,0.3c-2.3,0.1-4.5-0.5-6.4-1.7c0,0,0,0-0.1-0.1
		c1.4,0.2,2.7,0,4-0.6C20.8,31,21.4,30.7,22,30.2z"/>
</g>
<linearGradient id="XMLID_3_" gradientUnits="userSpaceOnUse" x1="2.3251" y1="35.4387" x2="47.6749" y2="14.5607">
	<stop  offset="0" style="stop-color:#EBEBEB;stop-opacity:0.1"/>
	<stop  offset="1" style="stop-color:#FFFFFF;stop-opacity:0"/>
</linearGradient>
<circle id="XMLID_6_" class="st1" cx="25" cy="25" r="25"/>
</svg>
