<?xml version="1.0" encoding="utf-8"?>
<!-- Generator: Adobe Illustrator 19.0.0, SVG Export Plug-In . SVG Version: 6.00 Build 0)  -->
<svg version="1.1" id="Layer_2" xmlns="http://www.w3.org/2000/svg" xmlns:xlink="http://www.w3.org/1999/xlink" x="0px" y="0px"
	 viewBox="-281 372 49 49" style="enable-background:new -281 372 49 49;" xml:space="preserve">
<style type="text/css">
	.st0{fill:#FFFFFF;}
</style>
<path class="st0" d="M-256.5,406.9c-0.3,0-0.6-0.1-0.9-0.2l0,0l-6.5-5.7l-5,0c-0.2,0-0.3-0.1-0.4-0.2c-0.2-0.2-0.1-0.3-0.1-0.4
	l0-8.7c0,0,0-0.1,0-0.2c0-0.2,0-0.4,0.1-0.5c0-0.1,0.1-0.1,0.3-0.1h5c6.5-5.1,6.5-5.1,6.5-5.1c0.3-0.1,0.6-0.2,0.9-0.2
	c0.3,0,0.6,0.1,0.8,0.2c0.5,0.3,0.9,0.8,0.9,1.4v18.1c0,0.6-0.3,1.1-0.9,1.4C-255.9,406.8-256.2,406.9-256.5,406.9L-256.5,406.9z
	 M-256.4,405.6C-256.4,405.6-256.4,405.6-256.4,405.6c0.1-0.1,0.2-0.1,0.2-0.3v-18.1c0-0.2-0.1-0.3-0.1-0.3c0,0-0.1,0-0.1,0
	c0,0-0.1,0-0.1,0l-6.2,5.1v8.1L-256.4,405.6C-256.5,405.6-256.5,405.6-256.4,405.6C-256.5,405.6-256.5,405.6-256.4,405.6z
	 M-267.8,399.6l3.6,0v-7.4h-3.6V399.6z"/>
<path class="st0" d="M-255.7,385.9c-0.5-0.3-1-0.2-1.5,0c0,0-6.5,5.1-6.5,5.1h-5.1c-0.3,0-0.2,0.4-0.2,0.6v8.7c0,0.1-0.1,0.2,0,0.3
	s0.1,0.1,0.3,0.1l5,0l6.5,5.7c0,0,0,0,0.1,0.1c0.2,0.1,0.5,0.2,0.8,0.2c0.2,0,0.5-0.1,0.7-0.2c0.5-0.3,0.7-0.7,0.7-1.3v-18.1
	C-255,386.6-255.3,386.1-255.7,385.9z M-256,405.2c0,0.2-0.1,0.4-0.2,0.5c-0.1,0-0.2,0.1-0.4,0l-6.3-5.6l-1-0.3l-4,0V392h4v7.8
	l1,0.3v-8.3l6.4-5.2c0.2-0.1,0.3,0,0.4,0c0.2,0.1,0.2,0.3,0.2,0.5V405.2z"/>
<path class="st0" d="M-244.8,399.7l-6-6c-0.3-0.3-0.3-0.8,0-1.1l0,0c0.3-0.3,0.8-0.3,1.1,0l6,6c0.3,0.3,0.3,0.8,0,1.1l0,0
	C-244,400-244.5,400-244.8,399.7z"/>
<path class="st0" d="M-243.7,393.7l-6,6c-0.3,0.3-0.8,0.3-1.1,0l0,0c-0.3-0.3-0.3-0.8,0-1.1l6-6c0.3-0.3,0.8-0.3,1.1,0l0,0
	C-243.4,392.9-243.4,393.4-243.7,393.7z"/>
</svg>
