<?xml version="1.0" encoding="utf-8"?>
<!-- Generator: Adobe Illustrator 19.0.0, SVG Export Plug-In . SVG Version: 6.00 Build 0)  -->
<svg version="1.1" id="Layer_1" xmlns="http://www.w3.org/2000/svg" xmlns:xlink="http://www.w3.org/1999/xlink" x="0px" y="0px"
	 viewBox="0 0 49 49" style="enable-background:new 0 0 49 49;" xml:space="preserve">
<style type="text/css">
	.st0{fill:#FFFFFF;stroke:#FFFFFF;stroke-width:0.7127;stroke-miterlimit:10;}
</style>
<g>
	<path class="st0" d="M20.5,35c-0.1,0-0.2,0-0.2-0.1c-0.2-0.1-0.3-0.3-0.3-0.5V14.5c0-0.2,0.1-0.4,0.3-0.5c0.1,0,0.2-0.1,0.2-0.1
		c0.1,0,0.2,0,0.3,0.1l14.6,10c0.1,0.1,0.2,0.3,0.2,0.4c0,0.2-0.1,0.3-0.2,0.4L20.8,34.9C20.7,35,20.6,35,20.5,35z M21,33.5l13.2-9
		l-13.2-9V33.5z"/>
</g>
</svg>
