<?xml version="1.0" encoding="utf-8"?>
<!-- Generator: Adobe Illustrator 19.0.0, SVG Export Plug-In . SVG Version: 6.00 Build 0)  -->
<svg version="1.1" id="Layer_1" xmlns="http://www.w3.org/2000/svg" xmlns:xlink="http://www.w3.org/1999/xlink" x="0px" y="0px"
	 viewBox="0 0 49 49" style="enable-background:new 0 0 49 49;" xml:space="preserve">
<style type="text/css">
	.st0{fill:#FFFFFF;stroke:#FFFFFF;stroke-width:0.5;stroke-miterlimit:10;}
</style>
<path id="XMLID_1_" class="st0" d="M23.9,35.5C23.8,35.5,23.8,35.5,23.9,35.5c-2.6-0.2-5-1.2-6.8-2.9c-4.5-4.1-4.7-11.1-0.6-15.6
	c2.1-2.2,5-3.5,8.1-3.5c2.8,0,5.4,1,7.5,2.9c4.3,4,4.7,10.6,1,15.1L32.6,32l2-0.2c0,0,0,0,0.1,0c0.3,0,0.6,0.3,0.6,0.6
	c0,0.2,0,0.3-0.1,0.5c-0.1,0.1-0.3,0.2-0.4,0.2L31,33.5c0,0,0,0-0.1,0c-0.2,0-0.3-0.1-0.4-0.2c-0.1-0.1-0.2-0.3-0.2-0.5v-3.7
	c0-0.2,0.1-0.3,0.2-0.5c0.1-0.1,0.3-0.2,0.5-0.2c0.4,0,0.6,0.3,0.6,0.6v2.1l0.5-0.7c3.2-4,2.7-9.8-1-13.2c-1.8-1.7-4.1-2.6-6.6-2.6
	c-2.7,0-5.3,1.1-7.1,3.1c-1.8,1.9-2.7,4.4-2.6,7c0.1,2.6,1.2,5,3.1,6.8c1.6,1.5,3.8,2.4,6,2.6c0.2,0,0.3,0.1,0.4,0.2
	c0.1,0.1,0.2,0.3,0.2,0.5C24.5,35.2,24.2,35.5,23.9,35.5z"/>
</svg>
