<?xml version="1.0" encoding="utf-8"?>
<!-- Generator: Adobe Illustrator 19.0.0, SVG Export Plug-In . SVG Version: 6.00 Build 0)  -->
<svg version="1.1" id="Layer_2" xmlns="http://www.w3.org/2000/svg" xmlns:xlink="http://www.w3.org/1999/xlink" x="0px" y="0px"
	 viewBox="-281 372 49 49" style="enable-background:new -281 372 49 49;" xml:space="preserve">
<style type="text/css">
	.st0{fill:#FFFFFF;}
</style>
<g>
	<path class="st0" d="M-256.5,406.9c-0.3,0-0.6-0.1-0.9-0.2l0,0l-6.5-5.7l-5,0c-0.2,0-0.3-0.1-0.4-0.2c-0.2-0.2-0.1-0.3-0.1-0.4
		l0-8.7c0,0,0-0.1,0-0.2c0-0.2,0-0.4,0.1-0.5c0-0.1,0.1-0.1,0.3-0.1h5c6.5-5.1,6.5-5.1,6.5-5.1c0.3-0.1,0.6-0.2,0.9-0.2
		c0.3,0,0.6,0.1,0.8,0.2c0.5,0.3,0.9,0.8,0.9,1.4v18.1c0,0.6-0.3,1.1-0.9,1.4C-255.9,406.8-256.2,406.9-256.5,406.9L-256.5,406.9z
		 M-256.4,405.6C-256.4,405.6-256.4,405.6-256.4,405.6c0.1-0.1,0.2-0.1,0.2-0.3v-18.1c0-0.2-0.1-0.3-0.1-0.3c0,0-0.1,0-0.1,0
		c0,0-0.1,0-0.1,0l-6.2,5.1v8.1L-256.4,405.6C-256.5,405.6-256.5,405.6-256.4,405.6C-256.5,405.6-256.5,405.6-256.4,405.6z
		 M-267.8,399.6l3.6,0v-7.4h-3.6V399.6z"/>
	<path class="st0" d="M-255.7,385.9c-0.5-0.3-1-0.2-1.5,0c0,0-6.5,5.1-6.5,5.1h-5.1c-0.3,0-0.2,0.4-0.2,0.6v8.7c0,0.1-0.1,0.2,0,0.3
		s0.1,0.1,0.3,0.1l5,0l6.5,5.7c0,0,0,0,0.1,0.1c0.2,0.1,0.5,0.2,0.8,0.2c0.2,0,0.5-0.1,0.7-0.2c0.5-0.3,0.7-0.7,0.7-1.3v-18.1
		C-255,386.6-255.3,386.1-255.7,385.9z M-256,405.2c0,0.2-0.1,0.4-0.2,0.5c-0.1,0-0.2,0.1-0.4,0l-6.3-5.6l-1-0.3l-4,0V392h4v7.8
		l1,0.3v-8.3l6.4-5.2c0.2-0.1,0.3,0,0.4,0c0.2,0.1,0.2,0.3,0.2,0.5V405.2z"/>
	<path class="st0" d="M-249.6,404.6c-0.3,0-0.5-0.2-0.6-0.5c-0.1-0.3,0.1-0.7,0.4-0.8c2.8-1.1,4.6-4,4.6-7.4c0-3.3-1.9-6.3-4.6-7.4
		c-0.3-0.1-0.5-0.5-0.4-0.8c0.1-0.3,0.3-0.5,0.6-0.5c0.1,0,0.1,0,0.2,0c3.2,1.3,5.4,4.7,5.4,8.6c0,3.9-2.2,7.3-5.4,8.6
		C-249.5,404.6-249.6,404.6-249.6,404.6z"/>
	<path class="st0" d="M-249.5,387.5c-0.2-0.1-0.4,0-0.5,0.3c-0.1,0.2,0,0.5,0.3,0.6c2.8,1.1,4.7,4.1,4.7,7.6c0,3.4-1.9,6.5-4.7,7.6
		c-0.2,0.1-0.3,0.3-0.2,0.6c0.1,0.2,0.2,0.3,0.4,0.3c0,0,0.1,0,0.1,0c3.2-1.2,5.3-4.6,5.3-8.4C-244.2,392.1-246.3,388.8-249.5,387.5
		z"/>
	<path class="st0" d="M-251.8,402.1c-0.3,0-0.5-0.2-0.6-0.5c-0.1-0.3,0.1-0.7,0.4-0.8c1.9-0.6,3.2-2.6,3.2-4.8
		c0-2.2-1.3-4.2-3.2-4.8c-0.3-0.1-0.5-0.5-0.4-0.8c0.1-0.3,0.3-0.5,0.6-0.5c0.1,0,0.1,0,0.2,0c2.4,0.8,4,3.3,4,6.1
		c0,2.8-1.7,5.3-4,6.1C-251.7,402.1-251.8,402.1-251.8,402.1z"/>
	<path class="st0" d="M-247.8,396c0-2.7-1.6-5.2-3.9-5.9c-0.2-0.1-0.4,0.1-0.5,0.3c-0.1,0.2,0.1,0.5,0.3,0.6c2,0.6,3.3,2.7,3.3,5
		s-1.4,4.4-3.3,5c-0.2,0.1-0.3,0.3-0.3,0.6c0.1,0.2,0.2,0.3,0.4,0.3c0,0,0.1,0,0.1,0C-249.4,401.1-247.8,398.7-247.8,396z"/>
</g>
</svg>
