<?xml version="1.0" encoding="utf-8"?>
<!-- Generator: Adobe Illustrator 19.0.0, SVG Export Plug-In . SVG Version: 6.00 Build 0)  -->
<svg version="1.1" id="Layer_1" xmlns="http://www.w3.org/2000/svg" xmlns:xlink="http://www.w3.org/1999/xlink" x="0px" y="0px"
	 viewBox="0 0 50 50" style="enable-background:new 0 0 50 50;" xml:space="preserve">
<style type="text/css">
	.st0{fill-rule:evenodd;clip-rule:evenodd;fill:url(#XMLID_2_);}
	.st1{fill-rule:evenodd;clip-rule:evenodd;fill:#3B5998;}
</style>
<linearGradient id="XMLID_2_" gradientUnits="userSpaceOnUse" x1="2.2814" y1="35.3948" x2="47.6312" y2="14.5168">
	<stop  offset="0" style="stop-color:#EBEBEB;stop-opacity:0.1"/>
	<stop  offset="1" style="stop-color:#FFFFFF;stop-opacity:0"/>
</linearGradient>
<circle id="XMLID_6_" class="st0" cx="25" cy="25" r="25"/>
<path id="XMLID_8_" class="st1" d="M28.3,17.6c0.7,0,1.3,0,2,0c0.1,0,0.2,0,0.3,0v-3.4c-0.3,0-0.7-0.1-1.1-0.1c-0.7,0-1.3-0.1-2,0
	c-1,0-2,0.3-2.8,0.9c-1,0.7-1.5,1.7-1.7,2.8c-0.1,0.5-0.1,1-0.1,1.5c0,0.8,0,1.5,0,2.3v0.3h-3.3v3.8h3.2v9.5h4v-9.5h3.2
	c0.2-1.3,0.3-2.5,0.5-3.8c-0.3,0-0.5,0-0.7,0c-0.9,0-3,0-3,0s0-1.9,0-2.7C26.8,18,27.4,17.7,28.3,17.6z"/>
</svg>
