<?xml version="1.0" encoding="utf-8"?>
<!-- Generator: Adobe Illustrator 19.0.0, SVG Export Plug-In . SVG Version: 6.00 Build 0)  -->
<svg version="1.1" id="Layer_1" xmlns="http://www.w3.org/2000/svg" xmlns:xlink="http://www.w3.org/1999/xlink" x="0px" y="0px"
	 viewBox="0 0 50 50" style="enable-background:new 0 0 50 50;" xml:space="preserve">
<style type="text/css">
	.st0{fill-rule:evenodd;clip-rule:evenodd;fill:url(#XMLID_2_);}
	.st1{fill:#007BB6;}
</style>
<linearGradient id="XMLID_2_" gradientUnits="userSpaceOnUse" x1="2.3251" y1="35.4387" x2="47.6749" y2="14.5607">
	<stop  offset="0" style="stop-color:#EBEBEB;stop-opacity:0.1"/>
	<stop  offset="1" style="stop-color:#FFFFFF;stop-opacity:0"/>
</linearGradient>
<circle id="XMLID_6_" class="st0" cx="25" cy="25" r="25"/>
<g id="XMLID_21_">
	<g id="XMLID_25_">
		<path id="XMLID_26_" class="st1" d="M16,21.9h3.9v12.4H16V21.9z M17.9,15.7c1.2,0,2.2,1,2.2,2.2c0,1.2-1,2.2-2.2,2.2
			c-1.2,0-2.2-1-2.2-2.2C15.7,16.7,16.7,15.7,17.9,15.7"/>
		<path id="XMLID_29_" class="st1" d="M22.3,21.9H26v1.7H26c0.5-1,1.8-2,3.7-2c3.9,0,4.6,2.6,4.6,5.9v6.8h-3.9v-6c0-1.4,0-3.3-2-3.3
			c-2,0-2.3,1.6-2.3,3.2v6.1h-3.9V21.9z"/>
	</g>
</g>
</svg>
