<?xml version="1.0" encoding="utf-8"?>
<!-- Generator: Adobe Illustrator 19.0.0, SVG Export Plug-In . SVG Version: 6.00 Build 0)  -->
<svg version="1.1" id="Layer_1" xmlns="http://www.w3.org/2000/svg" xmlns:xlink="http://www.w3.org/1999/xlink" x="0px" y="0px"
	 viewBox="0 0 50 50" style="enable-background:new 0 0 50 50;" xml:space="preserve">
<style type="text/css">
	.st0{fill-rule:evenodd;clip-rule:evenodd;fill:url(#XMLID_2_);}
	.st1{fill-rule:evenodd;clip-rule:evenodd;fill:#E52D27;}
</style>
<linearGradient id="XMLID_2_" gradientUnits="userSpaceOnUse" x1="2.3251" y1="35.4387" x2="47.6749" y2="14.5607">
	<stop  offset="0" style="stop-color:#EBEBEB;stop-opacity:0.1"/>
	<stop  offset="1" style="stop-color:#FFFFFF;stop-opacity:0"/>
</linearGradient>
<circle id="XMLID_6_" class="st0" cx="25" cy="25" r="25"/>
<g id="XMLID_35_">
	<path id="XMLID_39_" class="st1" d="M16.7,33.2c-0.8-0.3-1.4-0.8-1.7-1.6c-0.7-2-0.9-10.4,0.5-12c0.5-0.6,1.1-0.9,1.8-1
		c3.8-0.4,15.4-0.3,16.8,0.1c0.8,0.3,1.3,0.8,1.6,1.6c0.8,2.1,0.8,9.6-0.1,11.6c-0.3,0.5-0.7,0.9-1.2,1.2
		C33,33.8,18.6,33.8,16.7,33.2z M22.7,29.3c2.3-1.2,4.5-2.3,6.8-3.5c-2.3-1.2-4.5-2.4-6.8-3.5C22.7,24.6,22.7,26.9,22.7,29.3z"/>
</g>
</svg>
